<svg width="109" height="109" viewBox="0 0 109 109" fill="none" xmlns="http://www.w3.org/2000/svg">
<path d="M21.824 8.05535L29.4483 36.4932H77.5473L87.5189 8.05535L68.7487 17.3863L54.7267 0.945801L41.7666 17.3863L21.824 8.05535Z" fill="#FFA048"/>
<path d="M7.55542 101.941V17.3334L25.6949 35.8358H81.9273L100.43 17.3334V101.941H7.55542Z" stroke="#6EA6E7" stroke-width="4"/>
<path d="M50.9746 77.5688H57.0106V80.5869C57.0106 82.2537 55.6594 83.6049 53.9926 83.6049C52.3258 83.6049 50.9746 82.2537 50.9746 80.5869V77.5688Z" fill="#476E9A"/>
<path d="M24.1182 67.7749C28.6635 68.0301 39.47 67.3761 46.3337 62.7188" stroke="#476E9A" stroke-width="4"/>
<path d="M84.1768 67.7749C79.6315 68.0301 68.8249 67.3761 61.9612 62.7188" stroke="#476E9A" stroke-width="4"/>
<path d="M54.1474 81.4766V89.7904C54.1474 90.9532 52.6479 93.2426 49.6116 93.2426C46.5752 93.2426 45.0757 90.9532 45.0757 89.7904" stroke="#476E9A" stroke-width="4"/>
<path d="M54.1475 81.4766V89.7904C54.1475 90.9532 55.647 93.2426 58.6834 93.2426C61.7197 93.2426 63.2192 90.9532 63.2192 89.7904" stroke="#476E9A" stroke-width="4"/>
<path d="M68.0879 82.7905H107.768M68.0879 87.5066L107.768 98.077M68.0879 93.5236L92.969 107.184" stroke="#476E9A" stroke-width="4"/>
<path d="M40.2068 82.7905H0.5271M40.2068 87.5066L0.5271 98.077M40.2068 93.5236L15.3256 107.184" stroke="#476E9A" stroke-width="4"/>
</svg>
