<svg width="109" height="97" viewBox="0 0 109 97" fill="none" xmlns="http://www.w3.org/2000/svg">
<path d="M7.98022 89.7475V5.13956L26.1197 23.6419H82.3521L100.854 5.13956V89.7475H7.98022Z" stroke="#FFA048" stroke-width="4"/>
<path d="M3.42188 46.8545H105.094" stroke="#D07520" stroke-width="4"/>
<path d="M15.8904 59.4624V47.1323H54.4173V54.3965C51.4983 54.3965 49.0945 54.9116 49.0945 59.4624C49.0945 63.103 47.6138 64.1409 46.8734 64.2047H20.3165C16.7755 64.2047 15.8904 61.0432 15.8904 59.4624Z" fill="#D07520"/>
<path d="M92.9441 59.4624V47.1323H54.4172V54.3965C57.3361 54.3965 59.74 54.9116 59.74 59.4624C59.74 63.103 61.2207 64.1409 61.961 64.2047H88.518C92.0589 64.2047 92.9441 61.0432 92.9441 59.4624Z" fill="#D07520"/>
<path d="M51.3994 65.375H57.4354V68.393C57.4354 70.0598 56.0842 71.411 54.4174 71.411C52.7506 71.411 51.3994 70.0598 51.3994 68.393V65.375Z" fill="#D07520"/>
<path d="M54.5722 69.2827V77.5965C54.5722 78.7594 53.0727 81.0488 50.0364 81.0488C47 81.0488 45.5005 78.7594 45.5005 77.5965" stroke="#D07520" stroke-width="4"/>
<path d="M54.5723 69.2827V77.5965C54.5723 78.7594 56.0718 81.0488 59.1082 81.0488C62.1445 81.0488 63.644 78.7594 63.644 77.5965" stroke="#D07520" stroke-width="4"/>
<path d="M68.5127 70.5967H108.192M68.5127 75.3127L108.192 85.8832M68.5127 81.3297L93.3938 94.99" stroke="#D07520" stroke-width="4"/>
<path d="M40.6316 70.5967H0.951904M40.6316 75.3127L0.951904 85.8832M40.6316 81.3297L15.7504 94.99" stroke="#D07520" stroke-width="4"/>
</svg>
