<svg width="85" height="112" viewBox="0 0 85 112" fill="none" xmlns="http://www.w3.org/2000/svg">
<path d="M12.4903 65.0346C12.3219 69.0752 15.7872 71.488 17.5408 72.1894C28.0629 74.7145 27.8525 58.7211 20.9079 56.4063C13.9634 54.0914 12.7008 59.9838 12.4903 65.0346Z" fill="#CC1C1C"/>
<path d="M25.834 51.3559C25.6657 55.3965 29.1309 57.8093 30.8846 58.5107C41.4066 61.0358 41.1963 45.0424 34.2517 42.7276C27.3071 40.4127 26.0445 46.3051 25.834 51.3559Z" fill="#CC1C1C"/>
<path d="M56.2119 51.3559C56.3802 55.3965 52.915 57.8093 51.1613 58.5107C40.6393 61.0358 40.8496 45.0424 47.7942 42.7276C54.7388 40.4127 56.0014 46.3051 56.2119 51.3559Z" fill="#CC1C1C"/>
<path d="M71.1926 65.0346C71.3609 69.0752 67.8957 71.488 66.142 72.1894C55.62 74.7145 55.8303 58.7211 62.7749 56.4063C69.7195 54.0914 70.9821 59.9838 71.1926 65.0346Z" fill="#CC1C1C"/>
<path fill-rule="evenodd" clip-rule="evenodd" d="M41.2372 62.8892C38.3535 63.5954 31.9507 66.3848 29.4085 71.8931C28.4448 73.9813 26.8964 75.7773 25.3494 77.5715C21.7959 81.6931 18.2502 85.8056 21.8172 93.4316C25.9131 102.188 36.4704 96.1386 41.2372 92.0192V62.8892ZM41.2372 62.8892C44.1208 63.5954 50.5237 66.3848 53.0658 71.8931C54.0296 73.9813 55.578 75.7773 57.1249 77.5715C60.6784 81.6931 64.2241 85.8056 60.6571 93.4316C56.5613 102.188 46.0039 96.1386 41.2372 92.0192V62.8892Z" fill="#CC1C1C"/>
<path d="M2.22632 78.7171C2.22632 100.845 26.5331 108.612 38.6865 109.729C86.1207 109.729 83.5451 73.0075 81.7066 63.0796C80.2358 55.1373 82.5799 33.7538 81.7066 33.6636C80.8333 33.5734 80.0887 40.4292 78.0296 45.43C75.4557 51.6811 72.5141 46.9008 71.411 41.753C70.5285 37.6348 64.9087 25.449 64.4247 25.9419C63.9407 26.4348 66.778 35.9433 64.4247 39.179C61.4831 43.2235 53.7614 33.6636 52.2906 21.1618C51.1139 11.1604 44.5689 6.21677 44.5689 7.18921C44.5689 8.16164 50.7462 14.6167 44.5689 28.1481C36.8472 45.0624 26.9193 23.7356 26.1839 11.2338C25.4485 -1.26803 25.8162 0.202801 22.5069 11.2338C19.1976 22.2648 20.6684 49.8423 13.6821 39.179C6.69576 28.5157 6.41713 22.1409 7.2553 37.2279C8.09346 52.3148 2.22632 51.0576 2.22632 78.7171Z" stroke="#FF8585" stroke-width="4"/>
</svg>
