<svg width="250" height="181" viewBox="0 0 250 181" fill="none" xmlns="http://www.w3.org/2000/svg">
<path opacity="0.6" d="M76.5662 41.4361C31.8848 34.682 27.8581 51.827 22.0132 70.6608C16.1683 89.4946 14.09 101.314 31.7548 125.214C53.8357 155.088 183.074 179.117 213.598 160.933C244.122 142.749 245.42 70.6608 231.782 41.4361C218.144 12.2114 203.207 14.1596 170.735 31.045C138.263 47.9305 132.418 49.8788 76.5662 41.4361Z" fill="#F7F1F8"/>
<path d="M175.262 82.7891C152.267 83.4755 143.658 96.8033 142.228 103.381C116.488 157.007 194.996 172.452 215.589 143.708C236.181 114.965 204.006 81.9311 175.262 82.7891Z" fill="#6EA6E7"/>
<path d="M193.841 87.2121C180.113 84.2091 150.683 85.4103 142.789 114.24C132.922 150.276 156.947 156.711 172.82 157.14C153.944 139.98 120.91 99.6534 172.82 81.2061C159.521 105.659 141.931 132.687 182.258 157.14C193.841 139.551 208.428 101.369 182.258 81.2061C169.388 111.666 181.4 151.134 186.119 157.14C201.992 145.128 219.153 122.82 199.418 90.2152C219.153 110.379 234.168 145.557 192.125 157.14C150.082 168.724 95.1694 146.415 125.2 144.27C155.231 142.125 114.046 139.551 82.2993 139.551C50.5527 139.551 49.2656 144.27 73.7191 144.27C98.1726 144.27 112.759 148.56 73.7191 152.85C34.6795 157.14 17.9482 125.823 78.0093 130.971C138.07 136.119 120.91 123.678 97.3145 123.678" stroke="#476E9A"/>
<path d="M30.5215 62.4296C27.5561 95.545 36.3832 111.126 40.3665 122.767C43.6635 132.402 60.234 137.603 68.5378 137.554C75.1808 137.515 65.2512 128.4 59.456 123.847C71.7466 122.109 97.4019 118.902 101.699 119.975C107.071 121.317 111.613 118.98 106.802 116.892C102.954 115.221 90.3737 115.357 84.5646 115.633C91.0876 105.799 102.329 85.9249 95.1125 85.1014C87.8957 84.2779 87.6365 90.3853 88.409 93.5419C87.4088 92.88 85.6202 89.6486 86.4671 82.0181C87.5258 72.4799 94.7611 63.8101 99.3862 64.5907C104.011 65.3713 107.374 66.7792 103.049 61.4257C98.7228 56.0722 88.9064 57.253 84.0959 68.9135C79.2855 80.574 80.1933 51.2724 82.1204 49.3063L82.1715 49.2541C84.0579 47.3286 84.6552 46.7188 90.2161 52.9469C95.8268 59.2308 102.042 55.2715 106.802 52.9469C111.563 50.6222 114.709 41.5966 113.751 38.0709C112.794 34.5451 106.03 29.1912 105.006 26.8473C103.981 24.5034 107.791 22.6077 109.933 21.5717C112.074 20.5357 96.4796 17.7382 79.5475 27.6924C62.6153 37.6466 34.2282 21.0354 30.5215 62.4296Z" fill="#838BD6"/>
<path d="M92.1826 52.5725L76.0293 39.9616M93.5417 50.6883L78.4327 33.5913M95.3972 50.6883L90.4934 37.6999" stroke="#4550B8" stroke-linecap="round"/>
<path d="M101.036 56.5194L110.844 58.7725M103.024 55.4592L115.35 57.4473" stroke="#4550B8" stroke-linecap="round"/>
<path d="M31.9664 121.165C37.7489 119.559 34.3758 96.6702 31.9664 85.4264C46.958 92.2529 70.0343 108.958 42.4069 121.165C7.87269 136.425 -1.36321 101.489 11.8882 85.4264C25.1396 69.3641 39.9976 69.3639 37.1866 54.1046C34.3757 38.8453 14.2976 47.6797 11.8882 34.4281C9.47885 21.1766 16.7069 19.9719 16.7069 30.8141C16.7069 41.6562 31.9664 38.8453 46.0209 47.6797C60.0754 56.514 39.1945 75.7889 21.9274 85.4264C4.66026 95.0639 24.7383 123.173 31.9664 121.165Z" fill="#838BD6"/>
<path d="M74.218 131.561C72.3553 128.615 65.6236 101.141 62.4906 87.7725C65.7252 87.0232 72.7926 85.5585 75.1859 85.6939C78.1775 85.8633 80.4807 108.803 78.4261 118.591C76.3715 128.378 80.859 128.632 83.365 132.079C85.871 135.526 76.5464 135.245 74.218 131.561Z" fill="#838BD6"/>
<path d="M114.628 26.8945C112.066 26.3483 107.312 29.4955 102.965 26.8947C103.046 28.9295 106.402 34.9146 107.312 34.027C108.45 32.9175 117.831 27.5773 114.628 26.8945Z" fill="#838BD6"/>
<path d="M98.916 46.2554C101.38 46.2554 102.597 47.3904 103.155 49.0051" stroke="white" stroke-linecap="round"/>
<path d="M104.535 50.9561C105.023 52.0771 104.535 52.7465 103.721 53.3286" stroke="white" stroke-linecap="round"/>
<path d="M94.5029 59.3717C93.1287 59.2954 93.4213 56.7316 93.7394 55.4592C95.1709 55.4592 97.7666 55.5547 96.6978 55.9364C95.3619 56.4135 94.9802 57.3678 96.6978 58.4174C98.4155 59.4671 96.2206 59.4671 94.5029 59.3717Z" fill="#FFA048"/>
<path d="M98.2625 55.4501C97.8387 54.4487 96.3849 54.5835 95.7109 54.776C95.9035 55.1612 96.385 56.0278 96.7702 56.4129C97.2516 56.8944 98.7924 56.7019 98.2625 55.4501Z" fill="#4550B8"/>
<path d="M96.6028 55.5926C95.803 55.6943 93.9003 55.7272 92.6875 55.0449" stroke="#4550B8" stroke-linecap="round"/>
<path d="M95.3975 22.325H106.004C104.618 23.6627 101.79 26.6822 101.561 28.0581" stroke="white" stroke-linecap="round"/>
</svg>
