<svg fill="none" height="121" viewBox="0 0 449 121" width="449" xmlns="http://www.w3.org/2000/svg" xmlns:xlink="http://www.w3.org/1999/xlink"><linearGradient id="a" gradientUnits="userSpaceOnUse" x1="143.301" x2="116.487" y1="24.152" y2="44.3998"><stop offset="0" stop-color="#fff"/><stop offset="1" stop-color="#ffb0b0" stop-opacity="0"/></linearGradient><linearGradient id="b"><stop offset="0" stop-color="#ffc101"/><stop offset="1" stop-color="#ffc101" stop-opacity="0"/></linearGradient><linearGradient id="c" gradientUnits="userSpaceOnUse" x1="311.513" x2="324.025" xlink:href="#b" y1="60.6586" y2="78.7846"/><linearGradient id="d" gradientUnits="userSpaceOnUse" x1="316.816" x2="328.661" xlink:href="#b" y1="35.3326" y2="11.775"/><linearGradient id="e" gradientUnits="userSpaceOnUse" x1="273.989" x2="318.056" y1="57.9366" y2="54.9821"><stop offset=".397853" stop-color="#e7ae01"/><stop offset="1" stop-color="#e7ae01" stop-opacity="0"/></linearGradient><linearGradient id="f" gradientUnits="userSpaceOnUse" x1="310.154" x2="372.255" y1="76.3555" y2="74.4613"><stop offset="0" stop-color="#3c80e7"/><stop offset=".520868" stop-color="#1569e9"/></linearGradient><linearGradient id="g" gradientUnits="userSpaceOnUse" x1="335.478" x2="335.478" y1="66.7045" y2="101.284"><stop offset="0" stop-color="#0556d0"/><stop offset="1" stop-color="#5094fb"/></linearGradient><path d="m.906738.790527h448v120h-448z" fill="#fff"/><path d="m27.8492 69.9253c-13.9116 23.3715 11.0479 28.8102 40.726 24.173 13.4478-2.0867 37.5928-6.088 69.8678-8.8703 40.344-3.4779-69.5546 11.1293-101.5513 22.954-31.99661 11.825 159.9833 3.478 220.4983 3.478 60.516 0 171.809 6.956 166.939-36.1701-4.869-43.1259 45.213-63.2978-54.255-72.34028-99.468-9.04254-150.245 38.25688-255.973 15.99838-105.72801-22.25858-68.8623 21.5629-86.2518 50.7773z" fill="#dceafe" opacity=".6"/><path d="m90.8878 13.1291c-84.18342 32.9081-81.60548 69.9945-63.5205 88.7749 18.0851 18.781 55.8674 19.133 242.6017 14.541 186.734-4.592 137.754-103.3159 34.033-91.5365-103.721 11.7795-128.931-44.6876-213.1142-11.7794z" fill="#5094fb"/><path d="m84.1998 56.439c4.159-6.7858 13.5897-11.948 17.7852-13.6809 33.381-9.3031 23.805 18.606 23.531 19.9741-.273 1.3681-7.387 25.9938-14.228 34.7496-6.84 8.7562-25.4465 7.9352-16.6907-3.2834 8.7557-11.2184-4.3779-4.1043-8.7558 0-4.3779 4.1042-6.5668 10.1236-11.7656 6.8406-5.1988-3.2836 13.6809-13.1339 24.3521-16.9645 10.671-3.8307 1.642 3.0098 0 7.9349-1.6418 4.9251 3.557 3.8307 11.218-1.9153 7.662-5.746 7.114-21.8895 8.483-28.73 1.368-6.8404-12.587 9.5767-21.3428 14.5018-8.7557 4.9251-22.7103 17.7852-36.3912 25.1731-13.681 7.388-4.9252-7.6615-6.0196-15.5964-1.0945-7.935-13.681 11.7656-21.0687 12.0392s6.2932-10.6711 18.0588-16.9644c11.7656-6.2932 6.8405-1.3681 9.0295 11.492 2.1889 12.8596 32.5606-14.5018 36.3912-21.0686 3.8308-6.5669 10.3978-22.7104 3.2838-22.4368-7.1144.2737-12.0396 14.2282-22.9843 19.7006s-13.9545-11.7656-25.7202-6.8405c-11.7656 4.9252-10.3975 13.681-21.0686 16.1435-10.6711 2.4626-4.9251-3.0098 5.4724-6.5668 10.3975-3.5571 6.5668-14.5018 22.4367-17.238s20.795 11.2184 25.9938 2.7362z" fill="#fff"/><path d="m134.067 90.1113c-1.871-10.4998-.483-26.1308-4.197-34.7481-3.715-8.6174-4.065 4.3877-4.065 4.3877-.858 7.8124 2.555 30.2354 6.859 39.7352 5.38 11.8749 21.52 5.9379 24.56-1.8749 3.041-7.8124 3.154-16.9727 18.479-19.6872 15.325-2.7144 31.344 17.1872 35.321 19.6872 3.976 2.4998 6.082-3.4375-8.421-13.4373-14.502-9.9998-38.361-17.4997-43.741 0-5.38 17.5001-22.456 19.0621-24.795 5.9374z" fill="#99c1ff"/><path d="m133.192 84.7482c-7.277-12.0231-6.089-31.2295-5.961-34.4172-2.805-3.4428-3.518 8.2627-3.211 19.8916.382 14.5362 2.826 19.0025 14.684 27.8008 18.36 13.6216 54.936 10.8346 46.521-10.2042-8.416-21.0393 9.695-29.8832 16.056-31.2225 15.067-3.1718 21.814 1.7675 25.64-.9102 3.825-2.6777 1.53-9.1809-17.979-5.3555-19.509 3.8253-34.428 15.6838-32.133 37.4882 2.295 21.8048-36.34 8.9521-43.617-3.071z" fill="#fff"/><path d="m115.392 38.9273c-5.91-1.5322-3.922 4.2867-2.189 7.3878 1.418 3.2834 3.831 0 7.388 1.6417s-1.642 4.6515-1.642 11.2183c0 6.5669 11.492 6.0196 9.851-3.2834-1.642-9.303 4.651-6.5668 7.387-3.2834s6.294 10.6711 9.303 0c3.01-10.6712-6.019-6.2932-9.303-9.5767-3.283-3.2834 5.746-10.3975-2.736-10.6711s-6.84 3.8307-4.651 8.2086-6.02.2736-13.408-1.6418z" fill="#f00"/><path d="m145.55 21.518c-12.64-8.8183-24.434.3674-37.294 3.4906-12.8603 3.1231-11.5743-.3674-22.046 3.858s5.6951 3.3068 2.2045 11.574c-3.4905 8.2671 9.5532 6.0625 9.5532 13.5948s7.3483 3.1232 14.3293 5.5115c6.982 2.3882-5.878 12.3088 11.023 9.9205 16.902-2.3883 9.186 7.716 20.209 7.3486s-1.654-6.2463 4.225-15.2483 13.595-29.0268-2.204-40.0497z" fill="#fff" opacity=".9"/><path d="m145.55 21.518c-12.64-8.8183-24.434.3674-37.294 3.4906-12.8603 3.1231-11.5743-.3674-22.046 3.858s5.6951 3.3068 2.2045 11.574c-3.4905 8.2671 9.5532 6.0625 9.5532 13.5948s7.3483 3.1232 14.3293 5.5115c6.982 2.3882-5.878 12.3088 11.023 9.9205 16.902-2.3883 9.186 7.716 20.209 7.3486s-1.654-6.2463 4.225-15.2483 13.595-29.0268-2.204-40.0497z" fill="url(#a)"/><path d="m195.925 100.36.963-15.8911 25.843 1.4447.963 16.0514z" fill="#99c1ff"/><path d="m195.444 86.7161 13.964 6.9021 14.286-5.939 1.445 15.7308-31.14-1.766" stroke="#fff"/><path d="m203.297 90.7366-7.656 9.6914m20.932-9.6914 5.33 9.6914" stroke="#fff"/><path d="m141.499 42.8424c-.665.4652-1.595 1.7546 0 3.19 1.993 1.7944 1.958-4.2021 0-3.19z" fill="#5094fb"/><path d="m147.198 44.1519c0-.8327.793-1.22 1.189-1.3095 1.19-.4174.893 3.19 0 3.19-.892 0-1.189-.8397-1.189-1.8805z" fill="#5094fb"/><path d="m224.587 39.4614-4.368 20.3817 34.212 4.7314 3.276-25.1131z" fill="#99c1ff"/><path d="m224.326 41.1599-3.636 20.4979 35.045 2.3143 2.975-24.7958-23.143 12.2326-9.124-8.02" stroke="#fff"/><path d="m242.452 48.1677 10.035 13.1415m-20.787-13.1415-10.513 13.1415" stroke="#fff"/><path d="m328.225 83.4685c0-8.2815 2.862-50.0764 4.292-69.9387.933-13.187419-19.441-1.5148-32.57 7.8272-13.13 9.3419-18.937 19.6939-13.382 36.6104 5.555 16.9166 41.66 35.853 41.66 25.5011z" fill="#e7ae01"/><path d="m291.297 62.5992c2.804 3.3962 9.574 10.9002 14.232 13.7465m-4.852-8.8948c2.534 2.7493 9.186 9.1859 15.526 12.9378m-8.572-12.9378c4.529 3.3423 14.167 10.3179 16.496 11.4823m-11.967-13.0995c3.504 1.8329 11.353 5.6603 14.716 6.3072m-9.056-8.4096c1.455.7008 5.304 2.1024 9.056 2.1024m-4.366-5.1751h5.498" stroke="url(#c)" stroke-linecap="round"/><path d="m280.482 44.4003c-3.381 3.9008-8.067 5.1504-9.988 5.2876-1.18 1.3815 3.245 2.1127 8.645 3.2245s14.58 20.3158 31.27 15.2064c13.353-4.0875 19.202-13.9904 20.458-18.4309 1.618 3.7594 5.079 11.2782 5.977 11.2782 1.124 0 3.513-10.5126 4.367-17.801.855-7.2884 2-12.6047-.854-8.5271-2.284 3.2621-7.278 6.3505-9.49 7.4869-1.3-6.1762-7.867-18.0736-23.73-16.2533-19.829 2.2755-22.429 13.6527-26.655 18.5287z" fill="#ffc101"/><path d="m291.473 32.1085c1.559-2.2926 5.502-7.538 8.804-10.1791m-1.599 6.7176c2.352-3.1533 8.21-10.2297 12.828-13.3083m-7.614 11.7933c3.501-3.7885 12.229-12.5164 19.134-17.1202m-13.235 17.1202c3.836-3.6925 13.379-12.1422 20.86-16.4006m-14.818 16.4006c3.309-2.4457 11.106-7.8549 15.825-9.9266m-11.941 11.4416c2.686-.7926 8.632-2.4931 10.934-2.9535m-8.488 5.1792h7.625m-4.748 2.5896 4.748 1.8703" stroke="url(#d)" stroke-linecap="round"/><path d="m284.671 41.4955c-1.462.8045-1.176 2.1656-.85 2.7456 1.161 2.7456 3.227 0 3.41-.9174s-.732-2.8338-2.56-1.8282z" fill="#333"/><path d="m272.369 50.5627c2.802.9339 9.585 2.094 14.304-.7373s3.834-8.9461 2.802-11.6496" stroke="#ff6a08" stroke-linecap="round"/><path d="m266.808 57.7823c7.756-1.9387 20.398-6.2607 25.75-8.1794h17.339c14.007 0 12.451 0 10.116 1.3973-2.335 1.3972-46.432 9.8571-53.205 9.3383-6.772-.5188-9.694-.1327 0-2.5562z" fill="url(#e)"/><path d="m269.677 60.3613c10.827 0 37.449-3.696 49.407-5.544" stroke="#ff6a08"/><path d="m312.429 71.3625v21.4965c2.343 0 7.441-.8268 9.095-4.134 2.067-4.1339-.414-9.508-4.547-17.3625-4.134-7.8544-4.548-4.9607-4.548 0z" fill="#1569e9"/><path d="m311.996 77.0184c.59-4.5458 1.924-13.2716 2.531-11.8081" stroke="#99c1ff" stroke-linecap="round"/><path d="m333.325 68.5823c-24.826 8.1207-31.866 20.9964-34.766 25.1533 49.218-16.9413 78.665-8.9427 87.236-2.8258-5.303-16.1876-21.438-32.4782-52.47-22.3275z" fill="url(#f)"/><path d="m310.125 88.032 10.082-11.5366m0 7.0632c1.657-2.2628 6.197-7.8357 11.103-12.025m-2.842 8.7278c3.739-3.4265 12.144-10.9 15.853-13.3826m-5.085 11.0551c3.141-2.8446 10.648-9.038 15.554-11.0551m-2.393 8.3398c2.542-1.293 8.853-4.1505 13.759-5.2367m-2.842 6.5135c2.094-.4256 7.029-1.2768 10.02-1.2768m0 5.0428 5.234 1.5515" stroke="#3c80e7"/><path d="m295.162 93.6821c-4.097 3.1331-3.607 4.3829 0 6.0251 3.607 1.6418 15.377 21.1428 41.159 18.2788 25.781-2.865 43.446-14.801 49.056-20.4104 1.432 2.7454 6.087 9.3104 13.248 13.6064 8.952 5.372-4.655-11.4748-3.222-21.126 1.432-9.6512 11.816-17.9037 5.013-13.2487-5.443 3.724-12.294 10.3841-15.039 13.2487-.951-5.8206-9.72-16.9798-37.194-15.0518-34.343 2.4101-47.9 14.7616-53.021 18.6779z" fill="#3c80e7"/><path d="m293.992 97.9786c4.163 3.3754 14.243 9.4504 21.263 6.7504 8.775-3.375 6.413-11.1379 2.025-12.4879" stroke="#99c1ff" stroke-linecap="round"/><path d="m349.914 77.671c-25.584 1.3706-38.026 11.0358-41.049 15.6971 5.878-2.8212 21.366-8.5776 36.29-9.0345 18.655-.571 21.13 9.0345 10.279 13.5155-10.85 4.4809-21.891-2.4746-22.272-1.1421s14.468 10.66 28.554 5.33c14.087-5.3301 20.178-26.0792-11.802-24.366z" fill="#5094fb"/><path d="m343.25 71.4441c-1.881 2.5861-13.086 16.9706-19.159 24.2194 5.134 2.1003 20.334 8.7725 23.861 5.8345 3.526-2.9391-1.47-21.2377 0-30.0539 1.469-8.8162-2.351-3.2326-4.702 0z" fill="url(#g)"/><g stroke-linecap="round"><path d="m328.54 89.7896c7.492-10.0292 22.113-28.9517 20.663-24.4084-1.45 4.5434-.604 22.6764 0 31.175" stroke="#99c1ff"/><path d="m307.643 93.9151c.592-.9038 2.151-2.6367 3.647-2.3375 1.87.374 2.057 1.8701 2.244 3.2726" stroke="#333" stroke-width="2"/></g></svg>