<svg width="341" height="221" viewBox="0 0 341 221" fill="none" xmlns="http://www.w3.org/2000/svg">
<rect opacity="0.1" x="0.930664" y="0.0980225" width="340" height="220" fill="#FBF3E9"/>
<path d="M3.82343 113.474C14.1777 148.678 73.2829 159.205 101.541 160.068C149.279 167.886 189.552 181.423 265.915 151.008C342.277 120.592 359.75 59.7609 313.156 22.2268C266.562 -15.3073 110.601 28.6982 69.1845 31.2868C27.7675 33.8753 -9.11941 69.468 3.82343 113.474Z" fill="#FBF3E9"/>
<path d="M177.812 92.8491L175.439 145.52M185.878 92.8491L201.062 145.52M301.185 83.3589V152.638M309.726 50.6176L335.824 152.638M296.44 83.3589V152.638" stroke="#476E9A"/>
<path d="M134.965 75.2765L142.483 149.745M129.236 75.2765L132.1 149.745H117.185L129.236 140.818H117.185L129.236 131.921H118.482L129.236 120.058H120.706L129.236 109.123H122.004L128.306 100.226H123.301L128.306 91.8849M125.298 75.2765L113.483 149.745" stroke="#6EA6E7"/>
<path d="M227.255 102.131C259.854 99.9085 276.338 121.579 284.673 140.101C293.008 158.623 293.008 178.997 244.851 178.997C196.694 178.997 110.567 185.48 94.8228 178.997C79.0792 172.515 92.9704 126.21 122.606 126.21C152.241 126.21 186.506 104.91 227.255 102.131Z" fill="#F2994A"/>
<path d="M73.3513 143.726C78.4089 130.934 86.3668 116.332 89.7136 110.63C96.0357 126.248 107.563 121.414 118.719 121.042C127.644 120.745 137.809 113.977 141.775 110.63C137.561 117.571 129.503 132.421 130.991 136.289C132.85 141.123 188.631 180.17 123.182 183.145C57.7324 186.12 67.0292 159.717 73.3513 143.726Z" fill="#E88A36"/>
<path d="M87.6138 127.025C91.8613 122.019 89.558 112.375 89.558 112.375C84.522 121.32 75.4421 138.262 79.4109 134.474C83.3796 130.686 83.3662 132.031 87.6138 127.025Z" fill="#E17B21"/>
<path d="M125.216 123.295C126.411 121.449 134.224 117.004 137.98 115.012C132.685 122.888 129.426 136.059 127.932 135.245C126.439 134.43 123.723 125.604 125.216 123.295Z" fill="#E17B21"/>
<path d="M88.4458 157.437C92.5782 157.156 102.308 155.409 108.169 150.675M125.356 148.984C126.953 151.239 132.626 155.24 142.544 153.211" stroke="#C66510" stroke-width="2" stroke-linecap="round"/>
<path d="M264.509 133.401C255.161 122.427 232.806 124.459 221.832 136.246C213.052 145.675 220.07 159.413 224.677 165.103C215.234 165.441 195.345 166.689 191.338 168.979C187.33 171.269 189.668 176.136 191.338 178.283" stroke="#C66510" stroke-width="2" stroke-linecap="round"/>
<path d="M287.489 146.307C289.018 151.834 295.392 163.241 308.657 164.652C325.238 166.416 321.358 177 304.424 178.058C287.489 179.116 204.936 180.175 192.588 181.233C180.24 182.292 183.415 170.297 196.821 170.649C207.13 170.921 259.763 168.389 287.749 166.939C285.979 166.782 284.063 166.183 282.901 164.652C280.397 161.354 285.932 161.535 287.489 146.307Z" fill="#E88A36"/>
<path d="M185.287 176.041C185.904 173.264 189.144 171.627 190.687 171.155C187.88 174.208 188.769 173.131 200.656 172.522C212.542 171.912 270.299 174.35 277.766 174.35C285.233 174.35 289.196 185.627 276.242 184.256C263.289 182.884 197.372 184.141 190.687 183.241C184.001 182.341 184.515 179.513 185.287 176.041Z" fill="#DF822E"/>
<path d="M117.78 158.323C116.705 159.105 118.227 160.765 119.122 161.497C122.784 163.084 123.761 160.032 124.493 158.323C125.226 156.614 119.122 157.347 117.78 158.323Z" fill="black"/>
<path d="M107.459 160.382C97.7898 161.763 72.1212 166.41 46.8047 173.944M107.459 164.903L61.8743 176.205M110.85 167.917C102.687 169.926 84.4784 174.849 76.9437 178.465" stroke="black" stroke-linecap="round"/>
<path d="M121.246 160.971C121.845 165.466 122.685 174.997 121.246 177.155C119.447 179.853 107.399 180.392 105.96 174.997" stroke="black" stroke-linecap="round"/>
<path d="M129.75 176.827C135.46 173.02 152.484 171.804 160.283 171.672C171.216 171.049 172.178 180.792 167.42 183.171C162.662 185.55 136.491 183.171 129.75 183.171C123.009 183.171 122.613 181.585 129.75 176.827Z" fill="#F2994A"/>
<path d="M132.519 160.312L168.108 167.804M132.519 163.434L157.182 170.302M130.022 167.804L149.689 175.921" stroke="black" stroke-linecap="round"/>
<path d="M122.054 173.337C121.952 175.127 122.997 179.721 127.17 178.862C131.342 178.002 133.014 174.411 132.273 173.337" stroke="black" stroke-linecap="round"/>
<path d="M72.7894 170.628C69.163 170.11 67.824 176.889 67.6079 180.343C67.134 183.806 76.3511 184.229 83.7988 184.229C91.2465 184.229 89.6274 184.229 88.9798 180.343C88.3322 176.458 77.3225 171.276 72.7894 170.628Z" fill="#F2994A"/>
<path d="M29.7193 59.8444L10.4536 156.139M34.5904 76.5453L29.7193 160.05L12.7405 149.379H27.4832L16.3443 131.033H27.4832L19.948 115.635H29.7193L23.2242 99.254H29.7193" stroke="#6EA6E7"/>
<path d="M35.9243 88.1332L34.3604 159.85" stroke="#6EA6E7"/>
<path d="M145.207 12.1053L26.8433 16.6057V96.3264H149.065L145.207 12.1053Z" fill="#FF4C8D"/>
<path d="M314.04 45.9257L170.816 68.7352V101.624L314.04 86.2404V45.9257Z" fill="#6EA6E7"/>
<path d="M176.889 97.4856L311.519 89.7649V52.609" stroke="#476E9A"/>
<path d="M303.973 96.3107H319.786L303.973 108.842H322.173L303.973 126.745H325.157L303.973 145.841H330.229" stroke="#6EA6E7"/>
<path d="M119.37 48.1465C116.453 55.4401 98.4367 72.3944 91.8462 77.6694C76.4043 70.571 53.1245 57.1589 61.3357 42.9848C69.5469 28.8108 81.3859 30.322 91.8462 42.9848C103.959 17.6594 123.017 39.0296 119.37 48.1465Z" stroke="white" stroke-width="2"/>
<path d="M182.856 83.4173L183.618 79.0348L183.65 79.0294L185.774 82.9196L182.856 83.4173ZM181.914 76.4688L179.577 88.4565L182.069 88.0314L182.524 85.373L186.736 84.6546L188.015 87.0171L190.586 86.5786L184.454 76.0356L181.914 76.4688ZM193.678 83.9086L192.467 76.8111L194.234 76.5098C194.844 76.4058 195.369 76.4081 195.809 76.5169C196.259 76.6134 196.637 76.8031 196.945 77.086C197.253 77.369 197.499 77.7328 197.683 78.1775C197.876 78.6099 198.021 79.11 198.118 79.6778C198.224 80.2982 198.235 80.8373 198.15 81.2954C198.066 81.7534 197.916 82.1415 197.7 82.4597C197.482 82.7674 197.214 83.0078 196.898 83.1809C196.581 83.3539 196.244 83.4709 195.886 83.5319L193.678 83.9086ZM189.636 75.1516L191.557 86.4129L196.415 85.5843C197.277 85.4372 197.999 85.1679 198.582 84.7764C199.173 84.3725 199.636 83.8824 199.97 83.3059C200.315 82.7277 200.534 82.0737 200.626 81.3438C200.718 80.614 200.694 79.839 200.554 79.0188C200.394 78.083 200.124 77.2905 199.742 76.6414C199.372 75.9904 198.916 75.4731 198.374 75.0894C197.843 74.7039 197.242 74.4492 196.572 74.3255C195.912 74.2 195.219 74.1992 194.494 74.3229L189.636 75.1516Z" fill="white"/>
<path d="M204.428 87.3859C206.374 85.829 211.824 81.0026 218.052 74.1518C225.837 65.5883 231.675 65.9778 227.004 74.1518C222.333 82.3258 217.662 92.8353 234.4 77.6548C251.137 62.4743 260.868 61.3065 254.251 69.4807C247.634 77.6548 245.299 93.2244 260.868 77.6548C276.438 62.0852 294.343 57.4139 284.223 69.4807C274.103 81.5474 286.169 79.601 297.457 69.4807" stroke="white" stroke-width="2" stroke-linecap="round"/>
</svg>
