<svg width="341" height="221" viewBox="0 0 341 221" fill="none" xmlns="http://www.w3.org/2000/svg">
<path d="M14.876 130.431C25.4974 157.197 50.812 164.951 62.1416 165.482C116.842 165.482 238.67 166.225 288.379 169.199C350.514 172.916 349.983 66.1708 315.995 26.3403C282.006 -13.4902 126.932 3.50421 57.3619 19.4364C-12.2087 35.3686 1.59918 96.9731 14.876 130.431Z" fill="#FBF3E9"/>
<path d="M189.376 183.606L12.3283 178L5.7334 171.444L53.5131 157.827L63.2036 50.2384L245.205 53.8749L224.209 163.481L189.376 183.606Z" fill="#CCCCCC"/>
<g opacity="0.2">
<path d="M192.105 173.945L7.34106 171.245M22.3845 167.002L192.105 168.931M38.1995 162.759H189.405M54.0144 158.13L123.778 159.976" stroke="black"/>
<path d="M25.5708 171.203L69.542 158.817" stroke="black"/>
<path d="M56.2268 171.203L85.644 160.055M85.644 171.203L109.488 160.055M111.345 171.203C112.584 171.203 121.358 166.042 125.59 163.461M134.57 171.203L145.098 163.461M159.032 168.106L164.297 163.461M180.399 163.461L175.444 168.106" stroke="black"/>
</g>
<path d="M58.72 153.915L67.99 55.7367L242.015 62.4786V158.55L58.72 153.915Z" fill="white"/>
<path d="M91.2623 70.5567C90.5413 72.3591 86.0892 76.5489 84.4605 77.8524C80.6445 76.0983 74.8916 72.7838 76.9208 69.2811C78.9499 65.7784 81.8756 66.1519 84.4605 69.2811C87.4538 63.0227 92.1635 68.3037 91.2623 70.5567Z" stroke="#FF4C8D" stroke-width="2"/>
<path d="M269.257 133.73C269.257 130.044 261.857 114.987 275.912 95.045L261.857 87.3781L213.089 118.254L215.109 184.624L252.045 187.221C263.299 185.586 286.904 182.489 291.29 183.181C296.773 184.047 302.255 183.758 302.832 180.584C303.41 177.41 300.998 175.709 275.912 175.709C304.581 174.685 309.701 140.897 289.735 128.611C269.769 116.324 269.257 138.338 269.257 133.73Z" fill="#E88A36"/>
<path d="M301.99 42.777H273.317C277.337 49.2975 285.858 61.5883 287.788 58.5871C289.717 55.5858 298.06 46.7965 301.99 42.777Z" fill="#E88A36"/>
<path d="M181.541 179.568C189.237 177.644 191.803 163.374 192.123 156.479C197.588 166.116 206.254 185.876 197.198 187.816C185.877 190.242 151.916 183.369 136.552 185.391C121.189 187.412 141.808 190.646 178.6 189.838C215.391 189.029 210.54 203.584 197.198 206.026C183.856 208.467 167.618 213.647 154.121 216.926C144.271 219.319 144.833 213.028 149.477 210.859C154.121 208.689 162.696 207.486 169.996 206.026C191.642 201.696 200.782 192.075 154.121 195.924C107.461 199.772 113.714 187.265 123.816 179.568C133.918 171.872 171.92 181.974 181.541 179.568Z" fill="#E88A36"/>
<path d="M184.367 177.742C179.006 179.003 163.74 180.769 145.573 177.742C122.863 173.957 114.347 185.785 117.186 191.462C119.457 196.004 140.841 196.824 151.25 196.666" stroke="#C66510" stroke-width="2"/>
<path d="M129.487 184.365C130.117 186.258 133.65 190.043 142.734 190.043C154.088 190.043 194.303 185.785 203.292 194.774C212.281 203.763 181.529 208.494 167.809 212.279C154.088 216.064 146.046 220.322 147.938 212.279" stroke="#C66510" stroke-width="2"/>
<path d="M273.498 149.895C268.981 140.609 267.852 121.976 267.852 113.82C266.245 125.41 255.737 142.507 257.163 148.389C258.588 154.27 273.498 185.655 276.232 188.13C278.965 190.606 282.469 189.913 286.212 189.913C289.954 189.913 291.065 187.224 287.614 185.655C284.164 184.087 279.145 161.501 273.498 149.895Z" fill="#C66510"/>
<path d="M236.157 45.9735C246.005 39.9554 247.555 29.7884 247.099 25.4572C248.939 28.7949 255.118 36.0769 265.115 38.5028C277.61 41.5352 292.04 45.9735 292.906 66.6606C293.773 87.3477 279.477 101.75 265.115 96.9845C250.752 92.2193 211.032 130.774 223.595 122.11C236.157 113.446 255.017 113.757 265.115 140.99C273.134 162.618 246.033 177.686 231.169 182.641C233.486 181.973 241.764 181.192 259.409 182.748C282.661 184.8 279.242 199.845 259.409 196.426C239.577 193.007 222.48 199.161 197.177 187.536C171.873 175.91 190.338 106.838 201.964 80.8511C213.589 54.8639 223.848 53.4961 236.157 45.9735Z" fill="#F2994A"/>
<path d="M253.374 112.007C242.873 117.841 244.38 108.361 246.446 102.892C242.853 105.374 233.704 111.824 225.86 117.767C216.054 125.195 223.483 125.492 235.665 129.95C247.848 134.407 255.277 132.624 265.083 119.549C274.889 106.475 272.214 112.007 280.356 112.007C288.498 112.007 288.742 109.09 280.356 102.892C271.97 96.6933 266.501 104.715 253.374 112.007Z" fill="#F2994A"/>
<path d="M260.43 78.8312C262.541 79.6947 268.433 80.9037 275.111 78.8312M287.724 79.7992C287.517 80.5243 287.631 82.3164 289.744 83.6838" stroke="#C66510" stroke-width="2"/>
<path d="M280.56 85.436C277.711 85.3121 279.373 87.2425 280.56 88.2231H283.502C286.444 88.2231 284.121 85.5908 280.56 85.436Z" fill="black"/>
<path d="M270.375 101.608C271.218 100.96 271.734 98.6693 271.887 97.6053L275.646 96.743L277.455 97.1724C276.779 97.7941 274.024 98.9809 275.646 99.8244C277.673 100.879 276.376 100.716 274.024 100.879C271.672 101.041 269.32 102.419 270.375 101.608Z" fill="#FF5029"/>
<path d="M281.153 87.4225C280.271 90.3468 277.777 96.3939 274.864 97.1884C271.222 98.1814 265.925 98.8434 263.608 93.7123" stroke="black"/>
<path d="M276.61 96.1281C276.369 97.0934 276.828 98.445 280.593 96.1281" stroke="black"/>
<path d="M254.28 39.4594C253.308 38.8761 249.338 31.6006 247.475 28.0358C248.69 34.8412 242.614 43.3482 246.26 42.3759C249.905 41.4037 255.496 40.1885 254.28 39.4594Z" fill="#E88A36"/>
<path d="M270.322 86.3684C263.273 87.1786 243.44 87.438 222.44 93.6602M270.322 89.2852C262.22 90.0953 244.023 92.6878 236.051 96.5767M263.273 84.6671C258.169 84.1 245.579 83.3061 236.051 84.6671M287.092 89.2852L294.384 96.5767M284.905 90.5005C287.011 93.0121 291.856 99.4449 294.384 105.084M287.614 87.959L292.638 92.1609" stroke="black"/>
<path d="M203.115 177.957C195.329 170.939 184.035 152.561 201.141 135.192C222.524 113.481 252.13 121.047 259.367 133.218C270.881 152.582 258.709 168.417 233.05 181.905C256.078 181.905 273.513 188.155 270.881 193.418" stroke="#C66510" stroke-width="2"/>
<path d="M167.328 105.703L104.84 104.171C102.035 104.102 99.7234 106.358 99.7234 109.164C99.7234 111.866 101.871 114.077 104.571 114.157L167.051 115.994C169.952 116.08 172.35 113.751 172.35 110.849C172.35 108.055 170.121 105.771 167.328 105.703Z" fill="#6EA6E7"/>
</svg>
