<svg fill="none" height="241" viewBox="0 0 401 241" width="401" xmlns="http://www.w3.org/2000/svg"><mask height="15" maskUnits="userSpaceOnUse" width="14" x="115" y="128"><path d="m121.606 128.692c-1.72-.555-3.387.282-4.949.844-.589.409-1.676 2.117-1.311 5.68.456 4.454 5.522 6.609 6.98 7.148s8.285.504 5.121-1.082c-4.532-2.272-8.551-7.185-5.841-12.59z" fill="#fff"/></mask><path d="m37.8109 100.786c-22.9756 41.162-56.003 105.686 126.3661 105.686 182.369 0 198.164-20.859 195.292-87.608-2.871-66.749-117.75-93.1706-195.292-90.3893-77.5429 2.7812-97.6466 20.8591-126.3661 72.3113z" fill="#5094fb"/><path d="m274.787 95.2928c-10.273 2.766-22.72 15.9702-27.66 22.2272 9.484 7.902 29.636 46.099 38.527 64.21 2.634-2.799 8.791-10.768 12.348-20.251 4.445-11.854 32.105-8.397 46.923-13.83 11.854-4.347 30.952-28.483 39.02-40.008-1.317.494-7.508 1.185-21.733 0s-27.331-16.2996-32.105-23.7084c-3.128 6.0917-12.348 17.4854-24.203 14.3238-14.817-3.9514-18.275-6.421-31.117-2.9636z" fill="#fff"/><path d="m355.66 119.972c-4.738-2.369-22.702-14.148-31.092-19.741l-5.29 1.75 34.494 21.602c2.604-.216 6.625-1.242 1.888-3.611z" fill="#d6d3d2"/><path d="m311.668 102.858 42.765 27.337m-50.073-29.773 42.224 29.773m-49.803-31.938 16.511 12.992m6.225 4.06 5.413 4.331m-44.93-21.383 22.736 18.947m-28.691-18.947 21.383 18.947m-25.713-14.346 10.285 8.391" stroke="#d6d3d2"/><path d="m337.157 99.2686c3.455 4.8774 14.513 14.9494 31.099 16.2144 20.732 1.582 11.847 7.119-6.812 20.169-18.66 13.051-24.181 12.884-33.44 12.884" stroke="#d6d3d2"/><path d="m68.3362 116.293c-3.0126-.335-7.9426 1.611-13.5661 6.431-3.4794 2.372-9.4562 10.441-10.4412 15.957-4.9251 1.182-8.4712 7.683-11.4263 13.397-3.6249 1.576-6.6325 6.96-7.6832 9.456-.8537.525-3.3491 2.875-6.5011 8.07-3.1521 5.196-2.7122 8.736-2.0983 9.857 2.1671 10.004 25.3448 15.17 28.6939 15.17s10.0473-8.275 12.2143-12.806c5.2592-2.561 6.3042-8.471 8.2538-12.221 3.326-1.293 7.9214-9.056 9.8033-12.776 1.2982-1.419 4.5731-6.355 7.2874-14.749 2.7144-8.395.2718-15.739-1.2888-18.362l4.6866-7.424c.3124-.376.0703-1.761-3.3978-4.292-3.468-2.531-7.5375-2.695-9.1387-2.461z" fill="#e5dacd" opacity=".9"/><path d="m76.1804 112.176c-2.5668-3.08 1.0694-2.053 3.2084-1.155 2.0962 1.027 6.3912 3.388 6.8019 4.62.5133 1.541-6.8019.385-10.0103-3.465z" fill="#aeabaa"/><path d="m75.3962 156.39c-13.0396-1.701-26.0635-12.677-30.9455-17.953-6.5286 2.636-9.4808 9.037-11.3986 13.706-2.5849.751-6.3371 5.67-7.6712 9.339 5.1697 11.924 25.1815 18.928 32.4358 20.512 3.8689-3.001 6.8971-9.274 7.9275-12.035 3.2173-2.082 9.652-7.711 9.652-13.569z" fill="#fff"/><path d="m123.492 128.545c-1.72-.555-5.273.429-6.835.991-.589.409-1.676 2.117-1.311 5.68.456 4.454 5.522 6.609 6.98 7.148 1.458.538 7.909-.837 7.145-4.293-.765-3.456-3.83-8.833-5.979-9.526z" fill="#fff"/><g stroke="#ece4e1"><path d="m115.58 131.684 6.221-2.066"/><path d="m114.487 133.865 6.222-2.067"/><path d="m114.896 135.732 6.221-2.067"/><path d="m116.016 137.885 6.221-2.066"/><path d="m117.833 140.217 6.221-2.067"/><path d="m119.7 141.663 6.222-2.067"/><path d="m121.507 143.231 6.221-2.067"/></g><path d="m72.5003 64.1385c-21.3567 2.5126-29.8366 8.3752-31.407 10.9925-12.2468 12.7272 13.6213 23.6953 28.7401 18.1976 15.1188-5.4978 20.0265-4.0191 34.0016-1.8815 14.773 2.2595 30.055-4.083 34.522-13.3605 4.467-9.2774 9.422-20.5158 0-23.1331-9.422-2.6172-39.1607 6.0443-65.8567 9.185z" fill="#aeabaa"/><path d="m72.5003 64.1385c-21.3567 2.5126-29.8366 8.3752-31.407 10.9925-12.2468 12.7272 12.2695 21.8138 27.3883 16.3161 15.1188-5.4978 24.4614-4.6042 38.4364-2.4666 14.773 2.2596 24.515-3.2608 28.982-12.5382 4.467-9.2775 11.88-18.8715 2.457-21.4888-9.422-2.6172-39.1607 6.0443-65.8567 9.185z" fill="#d6d3d2"/><path d="m100.486 60.91c2.615-2.1453 7.275-6.5568 7.973-7.1853 1.299-.6704 4.274-1.5503 6.034-1.5503 1.759 0 3.016.3771 1.131.8799-1.886.5028-9.775 6.8501-11.073 7.3529-1.299.5028-1.425.1676-4.065.5028z" fill="#504d4d"/><path d="m138.485 66.8736h-14.289c5.515-1.805 11.072-1.4206 13.161-1.0027z" fill="#504d4d"/><path d="m95.2532 74.187c-3.013 2.0715-.7062 9.3902 0 10.2533 1.2458 1.4756 4.5811 1.7167 6.0928 1.6528-.801-.5509-3.418-7.4898-.882-10.5392 3.169-3.8118 26.332-8.8526 29.071-9.6177 2.739-.765 7.65.8744 8.743.7651.875-.0875.802-1.0092.656-1.4591-.437 0-2.055-.1672-5.027-.836-3.716-.836-8.306-5.0274-11.585-7.869s-6.339-5.246-8.306-4.9181c-1.968.3279-7.541 2.7323-5.028 2.1858 2.514-.5464 5.465.3279 8.634 3.7159 2.536 2.7104 8.27 5.7196 10.82 6.8854 2.433.1217 5.51.4593-1.646.836-8.945.4707-27.7765 6.3555-31.5428 8.9448z" fill="#fff"/><path d="m159.104 223.957c-8.412-4.87-13.466-14.204-14.942-18.262l145.54-21.305c-.923 2.859-7.25 11.953-25.179 25.455-22.412 16.879-94.905 20.199-105.419 14.112z" fill="#65b0d0"/><path d="m203.591 142.937c-41.976 15.683-50.938 29.152-53.357 37.123s-7.973 16.639-7.973 16.639c-17.333 8.667-49.6411 22.533-58.2382 22.533-10.7463 0 8.6664 5.547 22.5332 3.467 13.866-2.08 37.785-14.907 40.212-11.787 1.941 2.496 10.435 5.431 13.092 8.32-1.271 3.698-6.575 14.56-6.852 14.56-.347 0 1.039 4.16 11.439 0 8.32-3.328 12.018-8.782 12.826-11.093 2.658.693 15.531.277 45.759-6.933 37.786-9.013 32.933-14.56 34.666-10.747 1.386 3.051-1.733 10.747-3.467 14.213-.346 1.849 1.248 4.437 10.4 0 11.44-5.546 10.746-12.479 12.765-22.533 7.716-5.823 12.607-18.155 14.088-23.593 4.742-.712 15.603-3.795 21.105-10.434 5.501-6.64 8.773-17.153 9.722-21.58-.749-1.499-4.784-4.613-14.932-5.074-10.148-.462-24.217 4.42-29.983 6.919-7.112-6.535-31.828-15.684-73.805 0z" fill="#8bd5ff"/><path d="m138.341 194.574c2.146-1.7 5.365-3.589 6.706-4.321l6.188-14.456c-3.553 3.279-11.106 10.76-12.894 14.456-2.235 4.619-2.682 6.446 0 4.321z" fill="#8bd5ff"/><path d="m320.499 146.767c0 3.258-1.01 4.203-2.897 6.51-1.888 2.307-6.729 2.534-8.914 2.36" stroke="#65b0d0" stroke-linecap="round"/><path d="m305.002 148.815c-.411-.686 4.16-3.378 6.498-4.637 1.352-.751 1.391 3.093-1.353 4.637-2.744 1.543-4.63.857-5.145 0z" fill="#000"/><path d="m252.498 131.875c19.69 3.605 28.31 11.67 30.159 15.253 7.742 6.702 18.581 25.306 0 46.105-23.226 25.999-78.691 29.466-103.304 29.812-24.612.347-47.838-9.706-31.545-42.292 16.293-32.585 80.077-53.385 104.69-48.878z" fill="#7cc6e5"/><path d="m147.832 192.023-4.356 7.078m8.167 0-3.811 8.711m3.811 6.399 3.951-6.399m11.213 1.705-4.954 8.866m18.513-5.997-4.433 7.822m17.731-7.822-1.564 7.822m13.038-7.822v5.997m10.169-8.866 1.564 8.866m11.734-8.866 1.565 4.694m9.387-9.126 1.825 5.997m8.605-9.648 2.868 6.378m7.301-8.711 3.651 5.984m4.954-10.431 4.172 4.447m0-10.183 6.519 5.736m0-9.387 4.433 3.651m-1.565-8.866 5.998 2.086m-4.433-8.344 6.258 1.565m-6.258-8.084h6.258m-6.258-7.822h4.433m-4.433-4.955h4.433m-5.998-4.693 3.129 1.304m-139.502 37.809 5.696-8.866m-.427-3.993 3.624-3.773" stroke="#65b0d0" stroke-linecap="round" stroke-width="2"/><path d="m156.958 180.379c1.868-.957 6.429-2.298 9.733 0 4.131 2.873 4.819 11.478 0 16.641m11.359-29.602c2.524-1.491 9.087-3.579 15.145 0 6.058 3.58 2.524 10.133 0 12.961m10.326-27.762c4.246-.459 14.182.069 19.965 5.852 5.782 5.783.344 11.588-3.098 13.768m3.098-29.257c2.065-1.148 8.192-2.754 16.177 0 7.986 2.753 4.934 11.473 2.41 15.489m7.572-23.406c3.328-.115 10.395.826 12.048 5.507 1.652 4.681.688 8.835 0 10.326m7.572-13.08c1.492.689 4.888 3.167 6.54 7.573" stroke="#65b0d0" stroke-linecap="round"/><path d="m178.495 191.931c2.466-1.716 8.363-4.632 12.223-2.573 3.86 2.058 2.895 11.365 1.93 15.761m11.902-23.803c2.895-2.573 9.65-6.626 13.51-2.252 3.86 4.375 1.608 15.977 0 21.23m16.727-32.81c2.681-1.93 8.942-4.632 12.545 0s-.214 18.228-2.573 24.447m10.293-33.775c2.466-1.823 8.171-4.375 11.259 0 3.088 4.374 3.86 15.761 3.86 20.908m-2.252-28.628c2.466-.644 7.784-1.158 9.328 1.93s2.788 7.934 3.217 9.971m-111.298 11.259c.858-2.681 1.609-8.364-2.251-9.65m25.733-5.79c1.823-1.716 3.989-5.662-1.93-7.72-5.919-2.059-9.114-.858-9.972 0m37.314-2.574c.536-2.144.386-6.755-4.503-8.042-4.89-1.286-8.042-.536-9.007 0m40.209 0c-.751-2.358-3.796-6.948-9.972-6.433" stroke="#65b0d0" stroke-linecap="round"/><path clip-rule="evenodd" d="m163.322 85.2041c2.863-3.5371 10.611-11.5207 18.695-15.1588 4.414-1.9861 5.936-5.3215 7.556-8.8697 2.088-4.5762 4.338-9.5065 13.161-12.3526 1.077-.3474 2.132-.6852 3.166-1.0159 13.996-4.4801 23.928-7.6593 28.163-15.6588 4.547-8.59 10.105-8.59 23.243-6.0635s27.791 23.2435 28.297 30.3176c.505 7.0741-12.633 15.6641-28.297 18.6958-7.075 1.3694-8.583 3.8727-10.439 6.9512-2.252 3.7372-5.015 8.3222-18.868 12.7552-16.261 5.2034-19.963 10.8254-23.23 15.7884-1.81 2.748-3.486 5.294-7.087 7.455-.45.27-.885.532-1.308.787-9.083 5.479-12.302 7.421-22.441-.787-10.611-8.59-21.223-22.6596-10.611-32.8439zm90.447-56.0875c-4.379-2.5265-13.946-5.2551-17.18 4.0423-4.042 11.6217 2.021 16.6747 11.622 15.6641 9.6-1.0106 22.738-9.6006 5.558-19.7064zm16.931 14.855c-3.833.6969-13.067 3.2407-19.339 7.8404-7.841 5.7495-3.659 20.6462 9.67 19.8622 13.328-.7841 20.907-9.0329 19.6-15.9421-1.306-6.9091-5.288-12.8807-9.931-11.7605zm-74.483 13.3286c3.345-5.6451 14.461-9.6698 19.601-10.9765 10.192 0 15.942 5.4883 10.976 13.5899-4.965 8.1017-20.907 11.7606-25.873 11.7606-4.965 0-8.885-7.3177-4.704-14.374zm33.714 7.579c-4.443 1.1325-14.479 4.9133-19.079 10.9765-5.749 7.579-3.397 16.9874 7.841 18.0328s24.305-6.5336 25.873-12.2832-2.041-19.232-14.635-16.7261zm-67.427 27.4412c.209-5.645 10.192-13.3286 15.158-16.4647 6.795-2.6135 14.635 1.5681 7.84 13.8513-6.795 12.283-15.681 18.033-18.294 15.419-2.614-2.613-4.966-5.7493-4.704-12.8056zm35.542-4.1815c-1.655-.0871-5.958.6272-9.931 4.1815-4.965 4.4429-15.68 17.5106-13.067 21.4306 2.614 3.92 8.102 7.84 18.294 3.92 10.193-3.92 14.636-16.465 13.59-20.9077-1.045-4.4429-4.181-7.579-8.886-8.6244z" fill="#fff" fill-rule="evenodd"/><path d="m222.316 40.1206c4.311-2.3951 13.681-8.6799 16.67-14.6582 3.736-7.4728 29.891-17.81977 35.065 0 5.173 17.8198 11.209 22.7059 14.083 30.4661 2.3 6.2082-8.431 12.9337-14.083 15.5205" stroke="#3c80e7" stroke-linecap="round"/><path d="m244.808 26.0296c-6.884 2.2193-8.48 7.2783-7.799 12.7608.682 5.4825 2.421 8.877 9.95 9.1544 7.53.2775 17.48-9.1544 15.598-14.98-1.883-5.8256-9.143-9.7093-17.749-6.9352z" stroke="#3c80e7" stroke-linecap="round"/></svg>