<svg width="401" height="241" viewBox="0 0 401 241" fill="none" xmlns="http://www.w3.org/2000/svg">
<path d="M37.8109 100.786C14.8353 141.948 -18.1921 206.472 164.177 206.472C346.546 206.472 362.341 185.613 359.469 118.864C356.598 52.115 241.719 25.6934 164.177 28.4747C86.6341 31.2559 66.5304 49.3338 37.8109 100.786Z" fill="#5094FB"/>
<path d="M274.787 95.2928C264.514 98.0588 252.067 111.263 247.127 117.52C256.611 125.422 276.763 163.619 285.654 181.73C288.288 178.931 294.445 170.962 298.002 161.479C302.447 149.625 330.107 153.082 344.925 147.649C356.779 143.302 375.877 119.166 383.945 107.641C382.628 108.135 376.437 108.826 362.212 107.641C347.987 106.456 334.881 91.3414 330.107 83.9326C326.979 90.0243 317.759 101.418 305.904 98.2564C291.087 94.305 287.629 91.8354 274.787 95.2928Z" fill="white"/>
<path d="M355.66 119.972C350.922 117.603 332.958 105.824 324.568 100.231L319.278 101.981L353.772 123.583C356.376 123.367 360.397 122.341 355.66 119.972Z" fill="#D6D3D2"/>
<path d="M311.668 102.858L354.433 130.195M304.36 100.422L346.584 130.195M296.781 98.257L313.292 111.249M319.517 115.309L324.93 119.64M280 98.257L302.736 117.204M274.045 98.257L295.428 117.204M269.715 102.858L280 111.249" stroke="#D6D3D2"/>
<path d="M337.157 99.2686C340.612 104.146 351.67 114.218 368.256 115.483C388.988 117.065 380.103 122.602 361.444 135.652C342.784 148.703 337.263 148.536 328.004 148.536" stroke="#D6D3D2"/>
<path opacity="0.9" d="M68.3362 116.293C65.3236 115.958 60.3936 117.904 54.7701 122.724C51.2907 125.096 45.3139 133.165 44.3289 138.681C39.4038 139.863 35.8577 146.364 32.9026 152.078C29.2777 153.654 26.2701 159.038 25.2194 161.534C24.3657 162.059 21.8703 164.409 18.7183 169.604C15.5662 174.8 16.0061 178.34 16.62 179.461C18.7871 189.465 41.9648 194.631 45.3139 194.631C48.663 194.631 55.3612 186.356 57.5282 181.825C62.7874 179.264 63.8324 173.354 65.782 169.604C69.108 168.311 73.7034 160.548 75.5853 156.828C76.8835 155.409 80.1584 150.473 82.8727 142.079C85.5871 133.684 83.1445 126.34 81.5839 123.717L86.2705 116.293C86.5829 115.917 86.3408 114.532 82.8727 112.001C79.4047 109.47 75.3352 109.306 73.734 109.54L68.3362 116.293Z" fill="#E5DACD"/>
<path d="M76.1804 112.176C73.6136 109.096 77.2498 110.123 79.3888 111.021C81.485 112.048 85.78 114.409 86.1907 115.641C86.704 117.182 79.3888 116.026 76.1804 112.176Z" fill="#AEABAA"/>
<path d="M75.3962 156.39C62.3566 154.689 49.3327 143.713 44.4507 138.437C37.9221 141.073 34.9699 147.474 33.0521 152.143C30.4672 152.894 26.715 157.813 25.3809 161.482C30.5506 173.406 50.5624 180.41 57.8167 181.994C61.6856 178.993 64.7138 172.72 65.7442 169.959C68.9615 167.877 75.3962 162.248 75.3962 156.39Z" fill="white"/>
<path d="M123.492 128.545C121.772 127.99 118.219 128.974 116.657 129.536C116.068 129.945 114.981 131.653 115.346 135.216C115.802 139.67 120.868 141.825 122.326 142.364C123.784 142.902 130.235 141.527 129.471 138.071C128.706 134.615 125.641 129.238 123.492 128.545Z" fill="white"/>
<mask id="mask0_12:352" style="mask-type:alpha" maskUnits="userSpaceOnUse" x="115" y="128" width="14" height="15">
<path d="M121.606 128.692C119.886 128.137 118.219 128.974 116.657 129.536C116.068 129.945 114.981 131.653 115.346 135.216C115.802 139.67 120.868 141.825 122.326 142.364C123.784 142.903 130.611 142.868 127.447 141.282C122.915 139.01 118.896 134.097 121.606 128.692Z" fill="white"/>
</mask>
<g mask="url(#mask0_12:352)">
</g>
<path d="M115.58 131.684L121.801 129.618" stroke="#ECE4E1"/>
<path d="M114.487 133.865L120.709 131.798" stroke="#ECE4E1"/>
<path d="M114.896 135.732L121.117 133.665" stroke="#ECE4E1"/>
<path d="M116.016 137.885L122.237 135.819" stroke="#ECE4E1"/>
<path d="M117.833 140.217L124.054 138.15" stroke="#ECE4E1"/>
<path d="M119.7 141.663L125.922 139.596" stroke="#ECE4E1"/>
<path d="M121.507 143.231L127.728 141.164" stroke="#ECE4E1"/>
<path d="M72.5003 64.1385C51.1436 66.6511 42.6637 72.5137 41.0933 75.131C28.8465 87.8582 54.7146 98.8263 69.8334 93.3286C84.9522 87.8308 89.8599 89.3095 103.835 91.4471C118.608 93.7066 133.89 87.3641 138.357 78.0866C142.824 68.8092 147.779 57.5708 138.357 54.9535C128.935 52.3363 99.1963 60.9978 72.5003 64.1385Z" fill="#AEABAA"/>
<path d="M72.5003 64.1385C51.1436 66.6511 42.6637 72.5137 41.0933 75.131C28.8465 87.8582 53.3628 96.9448 68.4816 91.4471C83.6004 85.9493 92.943 86.8429 106.918 88.9805C121.691 91.2401 131.433 85.7197 135.9 76.4423C140.367 67.1648 147.78 57.5708 138.357 54.9535C128.935 52.3363 99.1963 60.9978 72.5003 64.1385Z" fill="#D6D3D2"/>
<path d="M100.486 60.91C103.101 58.7647 107.761 54.3532 108.459 53.7247C109.758 53.0543 112.733 52.1744 114.493 52.1744C116.252 52.1744 117.509 52.5515 115.624 53.0543C113.738 53.5571 105.849 59.9044 104.551 60.4072C103.252 60.91 103.126 60.5748 100.486 60.91Z" fill="#504D4D"/>
<path d="M138.485 66.8736H124.196C129.711 65.0686 135.268 65.453 137.357 65.8709L138.485 66.8736Z" fill="#504D4D"/>
<path d="M95.2532 74.187C92.2402 76.2585 94.547 83.5772 95.2532 84.4403C96.499 85.9159 99.8343 86.157 101.346 86.0931C100.545 85.5422 97.928 78.6033 100.464 75.5539C103.633 71.7421 126.796 66.7013 129.535 65.9362C132.274 65.1712 137.185 66.8106 138.278 66.7013C139.153 66.6138 139.08 65.6921 138.934 65.2422C138.497 65.2422 136.879 65.075 133.907 64.4062C130.191 63.5702 125.601 59.3788 122.322 56.5372C119.043 53.6956 115.983 51.2912 114.016 51.6191C112.048 51.947 106.475 54.3514 108.988 53.8049C111.502 53.2585 114.453 54.1328 117.622 57.5208C120.158 60.2312 125.892 63.2404 128.442 64.4062C130.875 64.5279 133.952 64.8655 126.796 65.2422C117.851 65.7129 99.0195 71.5977 95.2532 74.187Z" fill="white"/>
<path d="M159.104 223.957C150.692 219.087 145.638 209.753 144.162 205.695L289.702 184.39C288.779 187.249 282.452 196.343 264.523 209.845C242.111 226.724 169.618 230.044 159.104 223.957Z" fill="#65B0D0"/>
<path d="M203.591 142.937C161.615 158.62 152.653 172.089 150.234 180.06C147.815 188.031 142.261 196.699 142.261 196.699C124.928 205.366 92.6199 219.232 84.0228 219.232C73.2765 219.232 92.6892 224.779 106.556 222.699C120.422 220.619 144.341 207.792 146.768 210.912C148.709 213.408 157.203 216.343 159.86 219.232C158.589 222.93 153.285 233.792 153.008 233.792C152.661 233.792 154.047 237.952 164.447 233.792C172.767 230.464 176.465 225.01 177.273 222.699C179.931 223.392 192.804 222.976 223.032 215.766C260.818 206.753 255.965 201.206 257.698 205.019C259.084 208.07 255.965 215.766 254.231 219.232C253.885 221.081 255.479 223.669 264.631 219.232C276.071 213.686 275.377 206.753 277.396 196.699C285.112 190.876 290.003 178.544 291.484 173.106C296.226 172.394 307.087 169.311 312.589 162.672C318.09 156.032 321.362 145.519 322.311 141.092C321.562 139.593 317.527 136.479 307.379 136.018C297.231 135.556 283.162 140.438 277.396 142.937C270.284 136.402 245.568 127.253 203.591 142.937Z" fill="#8BD5FF"/>
<path d="M138.341 194.574C140.487 192.874 143.706 190.985 145.047 190.253L151.235 175.797C147.682 179.076 140.129 186.557 138.341 190.253C136.106 194.872 135.659 196.699 138.341 194.574Z" fill="#8BD5FF"/>
<path d="M320.499 146.767C320.499 150.025 319.489 150.97 317.602 153.277C315.714 155.584 310.873 155.811 308.688 155.637" stroke="#65B0D0" stroke-linecap="round"/>
<path d="M305.002 148.815C304.591 148.129 309.162 145.437 311.5 144.178C312.852 143.427 312.891 147.271 310.147 148.815C307.403 150.358 305.517 149.672 305.002 148.815Z" fill="black"/>
<path d="M252.498 131.875C272.188 135.48 280.808 143.545 282.657 147.128C290.399 153.83 301.238 172.434 282.657 193.233C259.431 219.232 203.966 222.699 179.353 223.045C154.741 223.392 131.515 213.339 147.808 180.753C164.101 148.168 227.885 127.368 252.498 131.875Z" fill="#7CC6E5"/>
<path d="M147.832 192.023L143.476 199.101M151.643 199.101L147.832 207.812M151.643 214.211L155.594 207.812M166.807 209.517L161.853 218.383M180.366 212.386L175.933 220.208M193.664 212.386L192.1 220.208M205.138 212.386V218.383M215.307 209.517L216.871 218.383M228.605 209.517L230.17 214.211M239.557 205.085L241.382 211.082M249.987 201.434L252.855 207.812M260.156 199.101L263.807 205.085M268.761 194.654L272.933 199.101M272.933 188.918L279.452 194.654M279.452 185.267L283.885 188.918M282.32 180.052L288.318 182.138M283.885 173.794L290.143 175.359M283.885 167.275H290.143M283.885 159.453H288.318M283.885 154.498H288.318M282.32 149.805L285.449 151.109M145.947 188.918L151.643 180.052M151.216 176.059L154.84 172.286" stroke="#65B0D0" stroke-width="2" stroke-linecap="round"/>
<path d="M156.958 180.379C158.826 179.422 163.387 178.081 166.691 180.379C170.822 183.252 171.51 191.857 166.691 197.02M178.05 167.418C180.574 165.927 187.137 163.839 193.195 167.418C199.253 170.998 195.719 177.551 193.195 180.379M203.521 152.617C207.767 152.158 217.703 152.686 223.486 158.469C229.268 164.252 223.83 170.057 220.388 172.237M223.486 142.98C225.551 141.832 231.678 140.226 239.663 142.98C247.649 145.733 244.597 154.453 242.073 158.469M249.645 135.063C252.973 134.948 260.04 135.889 261.693 140.57C263.345 145.251 262.381 149.405 261.693 150.896M269.265 137.816C270.757 138.505 274.153 140.983 275.805 145.389" stroke="#65B0D0" stroke-linecap="round"/>
<path d="M178.495 191.931C180.961 190.215 186.858 187.299 190.718 189.358C194.578 191.416 193.613 200.723 192.648 205.119M204.55 181.316C207.445 178.743 214.2 174.69 218.06 179.064C221.92 183.439 219.668 195.041 218.06 200.294M234.787 167.484C237.468 165.554 243.729 162.852 247.332 167.484C250.935 172.116 247.118 185.712 244.759 191.931M255.052 158.156C257.518 156.333 263.223 153.781 266.311 158.156C269.399 162.53 270.171 173.917 270.171 179.064M267.919 150.436C270.385 149.792 275.703 149.278 277.247 152.366C278.791 155.454 280.035 160.3 280.464 162.337M169.166 173.596C170.024 170.915 170.775 165.232 166.915 163.946M192.648 158.156C194.471 156.44 196.637 152.494 190.718 150.436C184.799 148.377 181.604 149.578 180.746 150.436M218.06 147.862C218.596 145.718 218.446 141.107 213.557 139.82C208.667 138.534 205.515 139.284 204.55 139.82M244.759 139.82C244.008 137.462 240.963 132.872 234.787 133.387" stroke="#65B0D0" stroke-linecap="round"/>
<path fill-rule="evenodd" clip-rule="evenodd" d="M163.322 85.2041C166.185 81.667 173.933 73.6834 182.017 70.0453C186.431 68.0592 187.953 64.7238 189.573 61.1756C191.661 56.5994 193.911 51.6691 202.734 48.823C203.811 48.4756 204.866 48.1378 205.9 47.8071C219.896 43.327 229.828 40.1478 234.063 32.1483C238.61 23.5583 244.168 23.5583 257.306 26.0848C270.444 28.6113 285.097 49.3283 285.603 56.4024C286.108 63.4765 272.97 72.0665 257.306 75.0982C250.231 76.4676 248.723 78.9709 246.867 82.0494C244.615 85.7866 241.852 90.3716 227.999 94.8046C211.738 100.008 208.036 105.63 204.769 110.593C202.959 113.341 201.283 115.887 197.682 118.048C197.232 118.318 196.797 118.58 196.374 118.835C187.291 124.314 184.072 126.256 173.933 118.048C163.322 109.458 152.71 95.3884 163.322 85.2041ZM253.769 29.1166C249.39 26.5901 239.823 23.8615 236.589 33.1589C232.547 44.7806 238.61 49.8336 248.211 48.823C257.811 47.8124 270.949 39.2224 253.769 29.1166ZM270.7 43.9716C266.867 44.6685 257.633 47.2123 251.361 51.812C243.52 57.5615 247.702 72.4582 261.031 71.6742C274.359 70.8901 281.938 62.6413 280.631 55.7321C279.325 48.823 275.343 42.8514 270.7 43.9716ZM196.217 57.3002C199.562 51.6551 210.678 47.6304 215.818 46.3237C226.01 46.3237 231.76 51.812 226.794 59.9136C221.829 68.0153 205.887 71.6742 200.921 71.6742C195.956 71.6742 192.036 64.3565 196.217 57.3002ZM229.931 64.8792C225.488 66.0117 215.452 69.7925 210.852 75.8557C205.103 83.4347 207.455 92.8431 218.693 93.8885C229.931 94.9339 242.998 87.3549 244.566 81.6053C246.134 75.8557 242.525 62.3733 229.931 64.8792ZM162.504 92.3204C162.713 86.6754 172.696 78.9918 177.662 75.8557C184.457 73.2422 192.297 77.4238 185.502 89.707C178.707 101.99 169.821 107.74 167.208 105.126C164.594 102.513 162.242 99.3767 162.504 92.3204ZM198.046 88.1389C196.391 88.0518 192.088 88.7661 188.115 92.3204C183.15 96.7633 172.435 109.831 175.048 113.751C177.662 117.671 183.15 121.591 193.342 117.671C203.535 113.751 207.978 101.206 206.932 96.7633C205.887 92.3204 202.751 89.1843 198.046 88.1389Z" fill="white"/>
<path d="M222.316 40.1206C226.627 37.7255 235.997 31.4407 238.986 25.4624C242.722 17.9896 268.877 7.64263 274.051 25.4624C279.224 43.2822 285.26 48.1683 288.134 55.9285C290.434 62.1367 279.703 68.8622 274.051 71.449" stroke="#3C80E7" stroke-linecap="round"/>
<path d="M244.808 26.0296C237.924 28.2489 236.328 33.3079 237.009 38.7904C237.691 44.2729 239.43 47.6674 246.959 47.9448C254.489 48.2223 264.439 38.7904 262.557 32.9648C260.674 27.1392 253.414 23.2555 244.808 26.0296Z" stroke="#3C80E7" stroke-linecap="round"/>
</svg>
