<svg width="401" height="241" viewBox="0 0 401 241" fill="none" xmlns="http://www.w3.org/2000/svg">
<path d="M32.6069 135.481C43.2284 162.247 56.6496 197.362 98.64 213.289C140.63 229.217 267.475 243.549 351.047 213.289C409.576 192.098 421.782 83.4828 343.525 37.6072C265.269 -8.26841 154.463 14.7711 84.8926 30.7033C15.322 46.6355 19.3302 102.023 32.6069 135.481Z" fill="#5094FB"/>
<path d="M27.3934 45.6517C13.1479 53.5242 4.27574 67.0512 1.62036 72.8306C1.62036 72.8306 7.52881 76.5579 7.4499 77.6631C7.37099 78.7683 1.62036 74.1897 1.62036 74.1897C0.839334 77.28 4.90051 87.9196 27.3934 99.541C55.5096 114.068 135.641 102.821 145.481 95.3236C155.322 87.8259 148.762 80.7969 152.51 77.9853C155.509 75.736 186.562 87.0449 201.714 92.9806C199.527 89.3879 194.403 80.3283 191.404 72.8306C188.405 65.333 192.654 45.0269 195.153 35.811C189.842 37.6855 177.159 42.8401 168.911 48.4633C158.602 55.4924 154.853 65.8016 152.51 60.647C150.167 55.4924 122.988 25.5018 88.3118 20.3472C53.6352 15.1925 45.2004 35.811 27.3934 45.6517Z" fill="#3C80E7"/>
<path d="M88.3113 20.3472C53.6347 15.1925 46.9277 33.7196 27.3933 45.6517C85.61 26.0849 122.23 48.622 152.511 60.647C152.511 54.9848 122.988 25.5018 88.3113 20.3472Z" fill="url(#paint0_linear_12:323)"/>
<path d="M51.7827 43.7229C41.3818 46.8747 32.4781 52.9156 29.3264 55.542C19.4235 63.8498 29.3264 58.5341 37.0136 53.2165C44.7008 47.899 67.1476 45.6928 95.1195 55.542C123.091 65.3913 80.9366 71.3009 67.1476 68.1491C53.3586 64.9974 46.6611 59.4818 61.632 71.3009C76.6029 83.12 153.427 74.0587 130.183 55.542C106.939 37.0254 64.7837 39.7832 51.7827 43.7229Z" fill="#5094FB"/>
<path d="M203.861 205.286L30.7137 167.907L25.4064 160.271L74.8566 155.475L103.752 51.3877L282.127 87.7211L260.495 192.615L203.861 205.286Z" fill="#CCCCCC"/>
<g opacity="0.2">
<path d="M208.285 196.274L27.0237 160.365M42.5852 158.898L219.806 193.61M58.9054 157.571L235.068 191.108M75.2952 155.864L143.587 170.235" stroke="black"/>
<path d="M208.798 196.362L244.825 189.607L142.497 169.842" stroke="black"/>
<path d="M44.9634 163.604L90.4458 159.334" stroke="black"/>
<path d="M75.1188 169.121L106.062 163.45M104.056 174.416L129.516 167.741M132.99 176.096C134.208 176.319 151.63 173.87 156.257 172.093M154.506 180.956L176.803 176.096M165.264 187.532L195.287 180.956M211.8 183.352L182.277 190.608M217.554 187.532L205.295 190.608" stroke="black"/>
</g>
<path d="M80.6826 152.565L107.471 57.6577L273.564 93.8114L248.181 186.65L80.6826 152.565Z" fill="white"/>
<path d="M127.696 76.4242C126.663 78.0674 121.529 81.3875 119.692 82.3767C116.254 79.9643 111.192 75.6686 113.818 72.5883C116.445 69.508 119.256 70.4019 121.235 73.9453C125.306 68.3278 128.988 74.3702 127.696 76.4242Z" stroke="#FF4C8D" stroke-width="2"/>
<path d="M196.194 124.687L135.003 111.934C132.255 111.361 129.576 113.164 129.071 115.924C128.584 118.581 130.299 121.143 132.941 121.708L194.069 134.76C196.907 135.366 199.685 133.507 200.208 130.652C200.71 127.904 198.929 125.257 196.194 124.687Z" fill="#FF6A08"/>
<path d="M257.55 166.648C256.428 158.796 262.691 159.17 265.963 160.339L257.55 144.214C267.832 120.377 289.379 68.4978 293.305 51.672C298.212 30.6397 307.326 41.857 331.163 76.2097C354.999 110.562 354.999 149.122 345.184 166.648C335.369 184.175 291.903 208.012 265.963 212.218C240.023 216.425 258.952 176.463 257.55 166.648Z" fill="url(#paint1_linear_12:323)"/>
<path d="M236.415 119.896C228.366 110.504 233.061 144.493 236.415 162.661C237.464 168.699 252.505 160.146 259.894 155.114C259.894 163.779 267.777 181.947 299.305 185.301C338.716 189.494 350.101 173.15 356.345 158.783C359.181 152.256 371.637 158.783 373.676 155.114C378.195 146.983 365.18 162.661 358.841 119.896C356.806 106.166 339.555 79.6465 307.691 88.8703C282.199 96.2494 265.205 126.045 259.894 140.021C255.422 137.226 244.465 129.288 236.415 119.896Z" fill="#FFC101"/>
<path d="M257.086 149.248C239.799 149.691 262.442 144.631 275.925 142.045H336.874C317.481 144.261 274.374 148.805 257.086 149.248Z" fill="#EAB101"/>
<path d="M347.653 106.141C343.391 106.469 335.26 111.846 336.834 130.73C338.408 149.615 359.456 154.008 369.783 153.844" stroke="#FF6A08"/>
<path d="M265.521 143.395C252.659 144.929 231.607 148.21 250.299 149.059C273.663 150.121 323.931 143.395 334.905 146.227" stroke="#FF6A08"/>
<path d="M352.645 127.585C353.876 125.671 355.21 126.788 355.723 127.585C357.09 130.834 355.723 135.792 352.645 134.253C349.568 132.715 351.106 129.979 352.645 127.585Z" fill="black"/>
<path d="M319.995 188.954C309.23 193.373 281.853 203.028 258.464 206.292M309.117 188.954C296.312 192.694 268.254 200.172 258.464 200.173M294.499 186.914C285.094 188.954 264.175 192.897 255.744 192.354M279.541 183.175C275.801 183.175 266.351 183.175 258.464 183.175M271.042 178.075H259.824M333.962 87.8374C325.091 75.5646 305.747 49.7068 299.331 44.4574M323.755 87.8374C317.224 78.6024 303.196 59.4035 299.331 56.4872M312.09 87.8374C307.41 81.3972 297.341 68.0794 294.499 66.3297M302.976 87.8374L290.217 77.6303M294.499 91.8473L286.572 86.0147M290.217 96.9508L282.198 94.7636" stroke="#FFC101"/>
<path d="M32.1345 57.7033C35.0895 57.2108 40.1132 58.8854 36.5671 69.5236C32.1345 82.8215 15.9306 89.5557 1.95081 76.8468" stroke="#78BCFF" stroke-linecap="round"/>
<path d="M39.5233 38.8145C44.4819 34.425 56.74 24.8656 66.1042 21.7442M51.2081 36.7748C56.573 32.6292 67.5674 25.4509 78.2973 21.7442M61.2106 36.7748C67.7319 32.9013 81.6279 24.6541 89.0415 22.6536M71.1254 36.7748C77.4506 33.3916 89.9241 26.7723 97.5731 24.7129M81.6867 36.7748C86.1977 34.4213 97.0142 29.2729 104.192 27.5077M91.248 38.8145C94.8273 36.8107 103.604 32.156 110.076 29.5671M100.368 40.3051C103.506 38.54 111.282 34.5684 117.284 32.8032M109.194 42.0703C112.185 40.6974 119.461 37.7162 124.639 36.7748M116.549 44.2767C119.834 43.5412 127.11 42.0703 129.934 42.0703M123.315 46.9245C126.796 46.9245 134.347 46.9245 136.701 46.9245M132.288 51.1903C134.543 51.2393 140.143 51.7198 144.497 53.2496" stroke="#5094FB" stroke-linecap="round"/>
<path d="M22.6011 60.9799C21.3264 60.3426 23.1323 58.9693 24.1945 58.3623C24.498 57.9829 25.4009 57.4518 26.5845 58.3623C28.064 59.5004 24.1945 61.7765 22.6011 60.9799Z" fill="black"/>
<defs>
<linearGradient id="paint0_linear_12:323" x1="136.827" y1="40.0544" x2="58.5258" y2="31.6439" gradientUnits="userSpaceOnUse">
<stop stop-color="#1469E9"/>
<stop offset="1" stop-color="#3C80E7"/>
</linearGradient>
<linearGradient id="paint1_linear_12:323" x1="301.774" y1="41.0444" x2="301.774" y2="212.527" gradientUnits="userSpaceOnUse">
<stop stop-color="#E4AC00"/>
<stop offset="0.375" stop-color="#FFC101"/>
<stop offset="0.713542" stop-color="#FEC001"/>
<stop offset="1" stop-color="#E6AD00"/>
</linearGradient>
</defs>
</svg>
