<svg width="401" height="241" viewBox="0 0 401 241" fill="none" xmlns="http://www.w3.org/2000/svg">
<mask id="mask0_12:400" style="mask-type:alpha" maskUnits="userSpaceOnUse" x="0" y="0" width="401" height="241">
<rect x="0.0638428" y="0.311584" width="400" height="240" fill="white"/>
</mask>
<g mask="url(#mask0_12:400)">
<rect opacity="0.1" x="33.7197" y="14.3396" width="340" height="220" fill="#FBF3E9"/>
<path d="M36.6125 127.715C46.9668 162.92 26.8792 192.393 67.2613 199.301C107.643 206.208 221.043 213.061 297.406 182.645C373.768 152.229 392.539 74.0025 345.945 36.4684C299.351 -1.06564 143.39 42.9398 101.974 45.5284C60.5566 48.1169 23.6697 83.7096 36.6125 127.715Z" fill="#FBF3E9"/>
<path d="M204.054 24.4056C190.879 12.0812 209.543 8.2918 220.522 7.93765C248.677 4.7503 250.802 13.7811 289.05 15.3748C319.648 16.6497 334.735 25.8222 338.454 30.2491C331.725 29.8949 318.798 30.9928 320.923 38.2174C323.579 47.2482 324.642 96.1209 308.705 110.464C292.768 124.807 304.455 134.9 306.049 139.15C307.643 143.4 291.706 139.15 282.144 134.9C274.494 131.5 253.104 133.484 243.364 134.9C253.104 130.65 273.326 121.407 276.3 118.432C280.019 114.714 295.424 84.4339 282.144 71.6846C268.863 58.9352 220.522 39.8111 204.054 24.4056Z" fill="black"/>
<path d="M209.494 13.9279C209.03 13.4172 208.14 13.7151 207.753 13.9279C207.028 14.1822 208.259 15.3589 209.166 15.0565C210.073 14.7542 210.074 14.5663 209.494 13.9279Z" fill="#323131"/>
<path d="M204.12 41.2072C205.598 37.5643 212.126 30.8352 215.205 27.9259L230.91 35.1357C231.372 37.1596 232.019 41.7384 230.91 43.8634C229.525 46.5197 211.048 55.2473 206.429 56.0063C201.81 56.7652 202.272 45.7607 204.12 41.2072Z" fill="black"/>
<path d="M205.805 18.3996C197.745 16.4652 200.297 21.0863 202.581 23.6386C215.074 36.9377 248.918 49.9149 269.479 63.1328C290.04 76.3507 285.599 82.4769 283.987 97.3879C282.375 112.299 284.793 112.299 288.823 108.269C292.853 104.239 305.346 72.4018 295.674 61.1178C286.002 49.8337 265.046 53.8638 256.583 52.6548C248.12 51.4458 237.239 42.5797 235.224 35.3257C233.209 28.0717 215.88 20.8176 205.805 18.3996Z" fill="white"/>
<path d="M201.401 20.6832C207.499 27.2322 222.991 41.6853 236.179 47.1052C252.665 53.8801 272.763 64.2682 283.829 75.5597" stroke="#323131" stroke-linecap="round"/>
<path d="M213.059 11.1456C223.376 9.21116 227.03 10.3396 227.567 11.1456C236.116 12.0215 245.702 13.9666 236.836 16.3846C227.97 18.8026 200.163 13.5636 213.059 11.1456Z" fill="white"/>
<path d="M180.115 173.592C132.866 173.592 94.2506 172.19 74.9981 173.592C-10.3827 178.999 97.5297 222.857 175.377 233.07C253.224 243.284 350.156 189.813 359.699 145.956C369.241 102.098 357.188 132.137 336.596 145.956C316.004 159.774 232.017 173.592 180.115 173.592Z" fill="#5094FB"/>
<path d="M251.532 207.49C253.843 206.206 259.134 202.816 261.805 199.528C265.144 195.419 268.051 192.932 266.969 198.343C265.887 203.753 268.36 208.699 280.726 197.26C293.092 185.822 291.083 192.623 289.846 194.478C288.609 196.333 284.127 208.545 306.695 189.686" stroke="#3C80E7" stroke-linecap="round"/>
<path d="M283.732 174.088C285.267 173.423 289.119 171.586 292.25 169.556C296.164 167.018 300.11 163.823 298.964 168.035C297.817 172.247 298.199 175.689 306.86 169.556C315.52 163.422 318.194 159.912 316.666 163.121C315.138 166.33 314.246 172.079 317.939 169.556C320.894 167.537 322.057 166.497 322.27 166.23" stroke="#3C80E7" stroke-linecap="round"/>
<path d="M63.9096 193.271C65.5822 193.265 69.8469 193.097 73.525 192.466C78.1227 191.678 83.0082 190.298 80.2936 193.716C77.579 197.135 76.5723 200.449 86.9496 198.228C97.3269 196.008 101.169 193.838 98.4989 196.184C95.8287 198.53 92.7419 203.461 97.1311 202.599C100.643 201.909 102.121 201.413 102.422 201.251" stroke="#3C80E7" stroke-linecap="round"/>
<path d="M263.867 152.357C251.632 163.281 238.19 168.938 227.121 170.997L270.784 169.299L310.682 156.429C292.664 159.518 269.547 164.373 272.606 157.819C276.429 149.626 279.16 138.702 263.867 152.357Z" fill="#5094FB"/>
<path d="M210.601 107.091L208.228 159.762M218.667 107.091L233.852 159.762M333.974 97.6005V166.879M342.515 64.8592L368.613 166.879M329.229 97.6005V166.879" stroke="#476E9A"/>
<path d="M167.754 89.5181L175.272 163.986M162.025 89.5181L164.89 163.986H149.974L162.025 155.059H149.974L162.025 146.163H151.271L162.025 134.3H153.495L162.025 123.364H154.793L161.095 114.467H156.09L161.095 106.127M158.087 89.5181L146.273 163.986" stroke="#6EA6E7"/>
<path d="M62.5082 74.086L43.2426 170.38M67.3793 90.7869L62.5082 174.292L45.5294 163.621H60.2722L49.1332 145.274H60.2722L52.737 129.876H62.5082L56.0131 113.496H62.5082" stroke="#6EA6E7"/>
<path d="M68.7133 102.375L67.1493 174.091" stroke="#6EA6E7"/>
<path d="M177.996 26.347L59.6322 30.8474V110.568H181.854L177.996 26.347Z" fill="#FF4C8D"/>
<path d="M346.829 60.1673L203.606 82.9768V115.865L346.829 100.482V60.1673Z" fill="#5094FB"/>
<path d="M209.678 111.727L344.308 104.006V66.8506" stroke="#476E9A"/>
<path d="M336.762 110.552H352.575L336.762 123.084H354.963L336.762 140.986H357.946L336.762 160.082H363.019" stroke="#6EA6E7"/>
<path d="M152.159 62.3881C149.242 69.6817 131.226 86.636 124.635 91.9111C109.193 84.8126 85.9136 71.4005 94.1249 57.2264C102.336 43.0524 114.175 44.5636 124.635 57.2264C136.748 31.901 155.806 53.2712 152.159 62.3881Z" stroke="white" stroke-width="2"/>
<path d="M215.645 97.6589L216.407 93.2764L216.439 93.271L218.563 97.1612L215.645 97.6589ZM214.704 90.7104L212.366 102.698L214.858 102.273L215.314 99.6146L219.525 98.8962L220.804 101.259L223.375 100.82L217.243 90.2772L214.704 90.7104ZM226.467 98.1502L225.257 91.0527L227.023 90.7514C227.633 90.6474 228.158 90.6497 228.599 90.7585C229.048 90.855 229.427 91.0447 229.735 91.3276C230.043 91.6106 230.289 91.9744 230.473 92.4191C230.665 92.8515 230.81 93.3516 230.907 93.9194C231.013 94.5398 231.024 95.079 230.94 95.537C230.855 95.995 230.705 96.3831 230.489 96.7013C230.271 97.009 230.003 97.2494 229.687 97.4225C229.37 97.5955 229.033 97.7126 228.675 97.7735L226.467 98.1502ZM222.425 89.3932L224.346 100.655L229.204 99.8259C230.066 99.6788 230.789 99.4095 231.371 99.018C231.962 98.6142 232.425 98.124 232.76 97.5476C233.105 96.9693 233.323 96.3153 233.415 95.5854C233.507 94.8556 233.483 94.0806 233.343 93.2604C233.183 92.3246 232.913 91.5321 232.532 90.883C232.161 90.2321 231.705 89.7147 231.163 89.331C230.632 88.9455 230.031 88.6909 229.361 88.5671C228.701 88.4416 228.009 88.4408 227.283 88.5645L222.425 89.3932Z" fill="white"/>
<path d="M237.217 101.628C239.164 100.071 244.613 95.2442 250.841 88.3934C258.626 79.8299 264.464 80.2194 259.793 88.3934C255.123 96.5674 250.452 107.077 267.189 91.8964C283.927 76.7159 293.658 75.5481 287.041 83.7223C280.423 91.8964 278.088 107.466 293.658 91.8964C309.227 76.3268 327.133 71.6555 317.012 83.7223C306.892 95.789 318.959 93.8426 330.247 83.7223" stroke="white" stroke-width="2" stroke-linecap="round"/>
<path d="M228.882 47.2959C228.143 42.4388 231.653 32.6233 233.501 28.3228C238.89 31.9909 250.314 40.5415 252.901 45.3986C256.135 51.47 249.206 66.2691 243.663 68.9254C238.12 71.5816 229.806 53.3674 228.882 47.2959Z" fill="black"/>
<path d="M215.328 211.67C217.27 208.912 215.897 203.753 214.968 201.518C208.573 202.112 197.54 203.695 204.572 205.27C213.361 207.239 212.9 215.117 215.328 211.67Z" fill="#BAB7B6"/>
<path d="M95.2777 145.951C96.8622 150.341 98.4029 172.83 114.017 170.486C122.842 169.161 161.389 160.83 193.897 177.005C200.913 180.496 211.298 178.102 220.686 178.524C225.03 178.719 227.915 181.062 230.896 182.576L233.423 183.579C236.207 182.574 243.328 183.508 243.37 185.197C243.506 190.729 215.46 205.815 194.166 210.399C172.873 214.984 134.445 218.49 113.947 202.94C93.4495 187.391 104.729 170.547 68.3083 183.693C71.7093 180.546 81.7437 168.672 86.9008 164.563C93.2211 159.527 94.5451 143.921 95.2777 145.951Z" fill="#D6D3D2"/>
<path d="M144.032 157.91C147.185 160.386 146.085 166.205 145.141 168.805L181.753 174.792C180.245 172.7 175.009 167.06 166.127 161.23C155.025 153.942 140.091 154.814 144.032 157.91Z" fill="#D6D3D2"/>
<path d="M181.88 177.848C177.23 169.862 164.232 154.424 149.435 156.554C130.939 159.217 146.07 156.695 147.228 165.007" stroke="#BAB7B6"/>
<path d="M82.0423 177.579C87.2759 177.555 99.4335 180.02 106.195 190.069C114.646 202.631 149.334 238.896 227.713 197.013" stroke="#BAB7B6" stroke-linecap="round"/>
<path d="M240.374 190.227C235.965 191.194 225.366 193.223 218.237 193.604" stroke="#BAB7B6"/>
<path d="M210.388 192.958C211.748 190.935 213.112 191.337 213.624 191.79C214.558 192.157 214.772 194.009 213.782 194.448C212.792 194.888 208.689 195.487 210.388 192.958Z" fill="#2E282A"/>
<path d="M172.415 226.058C176.603 222.196 175.183 216.134 182.425 211.061C189.667 205.987 194.397 211.099 204.247 205.388C214.096 199.676 193.762 218.867 186.881 223.407C178.281 229.082 167.18 230.885 172.415 226.058Z" fill="#E2E2E2"/>
<path d="M235.676 28.1863C233.782 31.0714 229.915 38.4177 229.605 44.7219C229.217 52.6022 241.36 68.2335 245.882 68.8795C250.403 69.5254 252.858 54.0232 251.954 49.3726C251.049 44.7219 243.686 39.8129 240.844 31.6743" stroke="#323131" stroke-linecap="round"/>
<path d="M313.658 46.1635C316.566 46.1635 319.859 40.6039 321.142 37.8242C322.966 41.5891 322.986 55.4891 322.767 61.9685C322.796 60.9055 322.51 57.5819 321.142 52.7921C319.431 46.805 316.01 54.7166 313.658 58.7793C311.306 62.842 310.023 46.1635 313.658 46.1635Z" fill="white"/>
</g>
</svg>
