<svg width="341" height="221" viewBox="0 0 341 221" fill="none" xmlns="http://www.w3.org/2000/svg">
<path d="M66.5735 159.577L81.7977 172.032L95.2576 174.238" stroke="#476E9A"/>
<path d="M49.0941 94.4008C34.254 117.946 30.5441 145.907 61.5871 170.145C92.6301 194.383 313.717 199.144 315.988 148.504C318.259 97.8635 262.609 113.445 194.466 65.4018C126.323 17.3587 67.6441 64.969 49.0941 94.4008Z" fill="#FBF3E9"/>
<path d="M239.829 114.396C241.185 120.632 235.197 153.598 232.033 169.301C229.609 181.893 244.15 174.096 246.356 168.079C248.562 162.062 244.15 115.934 246.356 114.396C248.562 112.858 253.175 112.124 255.582 112.124C257.989 112.124 260.195 114.396 259.593 112.124C258.991 109.851 251.17 111.121 249.766 109.918C248.362 108.714 257.989 106.308 264.206 103.299C270.423 100.291 249.966 104.302 244.15 105.305C238.334 106.308 238.134 106.601 239.829 114.396Z" fill="#F2994A"/>
<path d="M98.9823 140.499C98.3053 139.387 94.8088 138.67 93.9881 138.67C93.2189 138.67 92.942 138.651 93.9883 137.3C95.2961 135.612 100.521 137.619 102.136 138.016C103.752 138.414 102.598 132.752 103.521 131.461C104.444 130.169 114.599 129.573 115.061 131.461C115.522 133.348 112.445 135.434 109.829 139.109C107.214 142.784 108.829 149.24 109.291 156.988C109.752 164.735 112.137 178.641 105.829 178.939C99.5207 179.237 97.4934 185.822 102.598 156.988C103.829 150.035 102.444 143.281 102.136 142.784C101.829 142.287 99.8285 141.89 98.9823 140.499Z" fill="#476E9A"/>
<path d="M115.685 55.4494L107.918 70.1709C99.2299 82.9956 114.273 86.0556 135.972 91.8829C125.945 90.2301 109.658 102.512 102.768 108.86C101.155 103.936 97.0788 94.2317 93.6775 94.8014C89.4259 95.5135 96.4765 112.742 99.2299 119.91C101.983 127.079 111.024 121.001 120.387 121.027C129.75 121.053 131.69 128.647 156.609 135.58C181.527 142.514 203.329 110.889 206.968 104.058C210.606 97.2263 223.411 85.26 228.794 80.8618C234.176 76.4636 277.208 68.4337 280.035 68.1146C282.861 67.7955 284.95 63.6918 280.425 60.7073C275.901 57.7228 239.192 61.277 232.188 60.9074C225.184 60.5378 251.703 46.0175 258.239 46.3625L268.045 46.88C261.517 40.4486 247.621 27.5414 244.259 27.364C240.897 27.1865 236.568 16.345 234.824 10.9464C235.143 13.7726 233.181 20.7861 222.78 26.2305C212.379 31.6748 207.664 43.5374 206.607 48.7882C207.107 45.2248 208.624 37.189 210.688 33.5521C213.269 29.0061 221.282 19.1281 214.303 18.2915C207.324 17.455 195.13 53.333 185.495 58.4433C177.788 62.5315 162.195 80.0005 155.362 88.224C155.936 86.2253 155.601 80.1517 149.671 71.8466C143.742 63.5414 126.033 67.269 117.92 70.171C117.92 63.673 120.19 62.1786 120.387 58.4432C120.584 54.7079 117.334 54.8909 115.685 55.4494Z" fill="#F2994A"/>
<path d="M255.832 46.9723C258.773 46.0901 265.39 46.6047 268.331 46.9723C259.692 39.6205 258.405 44.0314 255.832 45.318C253.259 46.6045 252.156 48.0749 255.832 46.9723Z" fill="#E88A36"/>
<path d="M214.303 18.2914C207.324 17.4549 195.13 53.3329 185.496 58.4432C187.351 57.504 192.532 55.2335 198.413 53.6651C204.295 52.0967 206.326 49.7603 206.607 48.7881C207.107 45.2248 208.624 37.1889 210.689 33.5521C213.27 29.006 221.283 19.128 214.303 18.2914Z" fill="#E88A36"/>
<path d="M115.685 55.4495L107.919 70.171C99.2302 82.9957 114.273 86.0557 135.972 91.883C144.747 91.883 152.555 89.4437 155.362 88.2241C155.936 86.2254 155.601 80.1517 149.671 71.8466C143.742 63.5415 126.034 67.2691 117.921 70.171C117.921 63.6731 120.19 62.1787 120.387 58.4433C120.584 54.7079 117.335 54.891 115.685 55.4495Z" fill="#E88A36"/>
<path d="M194.384 129.628C181.243 136.987 168.32 137.075 163.501 136.199C149.045 126.999 181.899 125.028 190.442 113.858C198.984 102.687 184.528 100.716 167.444 90.8595C150.359 81.0032 143.131 36.9785 145.103 25.8079C147.074 14.6373 156.273 13.9805 156.273 36.9785C156.273 59.9765 172.043 86.2599 194.384 90.8595C216.725 95.4591 210.811 120.428 194.384 129.628Z" fill="#E88A36"/>
<path d="M233.939 22.6173C234.767 21.4351 234.973 14.3417 234.973 10.9427C234.973 17.2973 229.358 21.5828 225.368 24.9817C227.88 24.2428 232.904 24.0951 233.939 22.6173Z" fill="#E88A36"/>
<path d="M222.561 31.4845C223.797 30.6601 226.611 29.5058 227.971 31.4845C229.332 33.4633 227.817 35.2978 226.889 35.9677M230.599 39.5234C231.836 38.6989 234.773 37.5446 236.629 39.5234C238.484 41.5022 236.062 43.749 234.619 44.625" stroke="#C66510"/>
<path d="M214.746 36.4453C208.921 33.4197 195.911 26.9373 190.465 25.2126M215.767 34.8568L196.819 17.3837M213.044 38.0336C208.316 36.1804 197.522 32.2244 192.167 31.2259M225.978 52.4432C227.264 55.658 230.381 64.4702 232.559 74.0009M227.907 51.1951C230.214 56.3009 235.464 68.6002 238.005 76.951M229.723 49.7201C233.391 54.9394 241.591 66.6713 245.04 71.8452" stroke="black"/>
<path d="M226.092 41.2602C226.042 40.309 224.82 39.2784 224.215 38.882C223.032 37.861 222.588 40.1963 223.089 41.2602C223.589 42.3241 226.155 42.4492 226.092 41.2602Z" fill="black"/>
<path d="M223.652 41.1976C222.505 41.886 220.022 43.513 219.271 44.5143C218.332 45.7659 219.083 47.7685 221.211 47.8937" stroke="black"/>
<path d="M219.209 44.6395C218.249 45.1193 216.242 45.6784 215.892 44.0762C215.542 42.4741 215.996 41.6981 216.268 41.5104" stroke="black"/>
<path d="M165.526 135.55C164.367 133.676 163.225 129.234 167.935 126.45C173.823 122.971 213.432 113.337 192.557 103.167C171.682 92.9969 152.412 83.3622 148.933 49.641C145.454 15.9198 152.948 12.7084 156.695 26.0898" stroke="#C66510"/>
<path d="M252.542 131.144C255.966 133.167 257.735 138.595 258.191 141.056C261.513 156.969 267.948 183.32 274.575 188.294C281.202 193.268 289.223 188.405 284.288 182.758C279.353 177.112 266.722 145.941 266.412 139.168C266.103 132.394 272.899 129.747 281.835 117.091C290.771 104.436 277.17 113.68 271.964 118.831C266.758 123.983 260.405 131.859 259.059 132.495C257.713 133.131 254.797 129.859 253.766 129.203C252.734 128.547 248.262 128.615 252.542 131.144Z" fill="#C66510"/>
<path d="M108.161 176.233H81.9458L78.0332 183.276L128.898 190.319L164.739 200.581L205.585 198.144L263.01 183.658L257.533 167.224L226.714 171.538L164.739 180.272L108.161 176.233Z" fill="#FBF3E9"/>
<path d="M290.451 133.801L293.456 137.579C291.709 142.422 287.224 152.689 283.257 155.014C278.299 157.921 293.456 161.682 295.909 160.998C298.363 160.314 299.5 155.527 301.893 152.108C304.287 148.688 310.271 143.217 319.504 142.875C328.736 142.533 329.42 125.607 321.384 120.135C313.349 114.664 310.1 119.623 303.603 121.674C297.106 123.726 300.526 123.555 298.303 125.607C296.525 127.248 292.327 131.753 290.451 133.801Z" fill="#F2994A"/>
<path d="M318.817 122.741L311.315 118.35C319.732 113.959 326.685 122.741 327.783 128.963C328.881 135.184 326.319 139.027 324.489 141.589C323.026 143.638 317.17 144.028 314.425 143.967C315.889 141.955 318.817 137.38 318.817 135.184C318.817 132.989 315.157 131.464 313.328 130.976L318.817 122.741Z" fill="#C66510"/>
<path d="M293.999 130.549C293.844 131.169 294.278 132.457 297.257 132.643C300.235 132.829 302.996 132.721 304.005 132.643" stroke="black"/>
<circle cx="306.251" cy="122.274" r="0.661569" fill="black"/>
<circle cx="308.967" cy="123.597" r="0.661569" fill="black"/>
<path d="M250.263 156.464C255.2 156.084 274.66 155 277.915 153.697C281.17 152.395 282.82 152.596 283.375 153.138C282.531 154.177 280.097 155.009 279.763 156.464C279.347 158.283 284.066 162.586 291.84 161.753C298.058 161.087 301.094 159.995 301.834 159.532L309.33 169.943L307.803 183.13" stroke="#C66510"/>
<path d="M290.985 174.459L282.863 183.83L284.862 194.95L307.853 182.955" stroke="#F2994A"/>
<path d="M29.9782 106.236C34.4622 99.5105 44.224 98.9966 48.5444 99.5804C55.9007 101.858 54.6968 109.037 56.4484 112.41C58.1999 115.783 61.5488 115.993 60.3595 118.583C59.2837 120.926 59.9767 121.701 61.2784 123.703C63.1055 126.514 61.1552 127.163 55.9007 129.265C50.6461 131.367 53.7989 136.362 55.9007 140.916C58.0025 145.47 62.9669 155.71 64.308 158.195C66.8364 162.881 69.1036 165.679 64.308 165.485C59.2692 165.281 43.9003 158.554 41.208 158.195C37.0043 157.635 48.5444 152.707 48.5444 146.812C48.5444 140.916 40.6975 135.101 35.9333 132.859C29.9782 130.057 24.3733 114.644 29.9782 106.236Z" fill="#6EA6E7"/>
<path d="M54.3674 125.555C53.0933 124.752 52.3618 123.443 52.1553 122.89L59.3225 121.383L61.3576 124.473C59.5585 125.169 55.6416 126.358 54.3674 125.555Z" fill="white"/>
<path d="M60.1524 120.984C58.9379 121.606 55.5261 122.882 51.5945 123.018" stroke="black"/>
<path d="M46.071 116.914C46.1384 115.475 46.8789 112.447 49.3021 111.841C51.7254 111.236 52.275 113.298 52.2469 114.405" stroke="black"/>
<path d="M54.142 113.958C54.1833 111.777 54.7265 108.599 56.5695 113.333" stroke="black"/>
<path d="M25.2054 110.824C26.2973 105.546 31.5748 102.104 34.0771 101.042C37.3377 99.2982 44.8599 96.1742 48.8636 97.63C52.8672 99.0859 57.5079 102.18 59.3277 103.545L41.1292 113.554L37.9445 107.412L43.859 145.401L25.2054 148.358C24.7505 138.046 24.1136 116.102 25.2054 110.824Z" fill="#476E9A"/>
<path d="M77.7212 150.546C79.1507 157.453 78.2781 161.315 74.2001 175.59C73.3772 177.426 72.9486 182.519 77.8175 188.204C83.9037 195.311 86.9339 190.92 85.8477 170.291C84.7616 149.662 85.944 150.955 86.472 148.215C87.0001 145.474 84.9281 143.844 83.2635 141.697C81.5989 139.55 81.2066 135.345 79.9293 133.897C78.652 132.448 75.6344 132.147 77.123 133.515C78.3139 134.609 78.9905 138.205 79.1799 139.866C77.95 139.013 74.5848 136.9 70.9638 135.276C66.4374 133.247 60.3613 132.077 62.5799 135.789C64.7984 139.502 75.9343 141.911 77.7212 150.546Z" fill="#6EA6E7"/>
<path d="M66.4183 159.433C67.5399 160.554 68.2128 162.872 61.9322 163.171C55.6517 163.47 43.9877 160.804 38.9408 159.433C36.5108 162.112 31.7257 168.106 32.0247 170.648C32.3986 173.826 28.8104 177.377 38.9408 187.48C47.0451 195.561 67.7009 196.495 78.5421 193.128L69.1793 179.084L52.0278 170.648" stroke="#476E9A"/>
<path d="M220.688 92.8997C220.093 95.1304 218.635 102.358 217.564 113.422" stroke="#476E9A"/>
<path d="M223.58 105.499C222.931 108.411 221.535 115.273 221.139 119.431" stroke="#476E9A"/>
<path d="M103.5 71.1935C102.854 68.6076 100.3 62.0782 95.2578 56.6476" stroke="#476E9A"/>
<path d="M104.814 53.7579L100.45 44.5455" stroke="#476E9A"/>
<path d="M267.69 33.8392C268.821 31.5765 271.86 26.1784 274.963 22.6874" stroke="#476E9A"/>
<path d="M272.054 42.5668C273.185 41.1122 276.709 37.5242 281.751 34.809" stroke="#476E9A"/>
<path d="M135.328 122.806C136.344 125.685 138.783 133.374 140.408 141.097M146.505 128.394C147.352 132.459 149.351 142.621 150.57 150.75" stroke="#476E9A"/>
<circle cx="225.514" cy="91.8453" r="0.580012" fill="#476E9A"/>
</svg>
